<svg xmlns="http://www.w3.org/2000/svg" version="1.1" xmlns:xlink="http://www.w3.org/1999/xlink" xmlns:svgjs="http://svgjs.dev/svgjs" viewBox="0 0 800 800" opacity="0.47"><defs><linearGradient x1="50%" y1="0%" x2="50%" y2="100%" id="cccoil-grad"><stop stop-color="#2EC4B6" stop-opacity="1" offset="0%"></stop><stop stop-color="#2EC4B6" stop-opacity="1" offset="100%"></stop></linearGradient></defs><g stroke="url(#cccoil-grad)" fill="none" stroke-linecap="round"><circle r="407" cx="400" cy="400" stroke-width="7" stroke-dasharray="2557 2557" transform="rotate(360, 400, 400)" opacity="0.05"></circle><circle r="388.5" cx="400" cy="400" stroke-width="7" stroke-dasharray="2325 2441" transform="rotate(343, 400, 400)" opacity="0.10"></circle><circle r="370" cx="400" cy="400" stroke-width="7" stroke-dasharray="2103 2325" transform="rotate(326, 400, 400)" opacity="0.14"></circle><circle r="351.5" cx="400" cy="400" stroke-width="7" stroke-dasharray="1893 2209" transform="rotate(309, 400, 400)" opacity="0.19"></circle><circle r="333" cx="400" cy="400" stroke-width="7" stroke-dasharray="1694 2092" transform="rotate(291, 400, 400)" opacity="0.23"></circle><circle r="314.5" cx="400" cy="400" stroke-width="7" stroke-dasharray="1506 1976" transform="rotate(274, 400, 400)" opacity="0.28"></circle><circle r="296" cx="400" cy="400" stroke-width="7" stroke-dasharray="1328 1860" transform="rotate(257, 400, 400)" opacity="0.32"></circle><circle r="277.5" cx="400" cy="400" stroke-width="7" stroke-dasharray="1162 1744" transform="rotate(240, 400, 400)" opacity="0.37"></circle><circle r="259" cx="400" cy="400" stroke-width="7" stroke-dasharray="1007 1627" transform="rotate(223, 400, 400)" opacity="0.41"></circle><circle r="240.5" cx="400" cy="400" stroke-width="7" stroke-dasharray="863 1511" transform="rotate(206, 400, 400)" opacity="0.46"></circle><circle r="222" cx="400" cy="400" stroke-width="7" stroke-dasharray="731 1395" transform="rotate(189, 400, 400)" opacity="0.50"></circle><circle r="203.5" cx="400" cy="400" stroke-width="7" stroke-dasharray="609 1279" transform="rotate(171, 400, 400)" opacity="0.55"></circle><circle r="185" cx="400" cy="400" stroke-width="7" stroke-dasharray="498 1162" transform="rotate(154, 400, 400)" opacity="0.59"></circle><circle r="166.5" cx="400" cy="400" stroke-width="7" stroke-dasharray="399 1046" transform="rotate(137, 400, 400)" opacity="0.64"></circle><circle r="148" cx="400" cy="400" stroke-width="7" stroke-dasharray="310 930" transform="rotate(120, 400, 400)" opacity="0.68"></circle><circle r="129.5" cx="400" cy="400" stroke-width="7" stroke-dasharray="232 814" transform="rotate(103, 400, 400)" opacity="0.73"></circle><circle r="111" cx="400" cy="400" stroke-width="7" stroke-dasharray="166 697" transform="rotate(86, 400, 400)" opacity="0.77"></circle><circle r="92.5" cx="400" cy="400" stroke-width="7" stroke-dasharray="111 581" transform="rotate(69, 400, 400)" opacity="0.82"></circle><circle r="74" cx="400" cy="400" stroke-width="7" stroke-dasharray="66 465" transform="rotate(51, 400, 400)" opacity="0.86"></circle><circle r="55.5" cx="400" cy="400" stroke-width="7" stroke-dasharray="33 349" transform="rotate(34, 400, 400)" opacity="0.91"></circle><circle r="37" cx="400" cy="400" stroke-width="7" stroke-dasharray="11 232" transform="rotate(17, 400, 400)" opacity="0.95"></circle><circle r="18.5" cx="400" cy="400" stroke-width="7" stroke-dasharray="0 116" opacity="1.00"></circle></g></svg>