<svg width="2327" height="780" viewBox="0 0 2327 780" fill="none" xmlns="http://www.w3.org/2000/svg">
<path d="M83 118C83 84.8629 111.094 58 145.751 58H627.884C662.54 58 690.635 84.8629 690.635 118V644C690.635 693.706 648.493 734 596.509 734H177.126C125.142 734 83 693.706 83 644V118Z" fill="#0B132B"/>
<path d="M181.309 202C181.309 182.67 197.698 167 217.914 167H554.675C574.891 167 591.28 182.67 591.28 202V227C591.28 246.33 574.891 262 554.675 262H217.914C197.698 262 181.309 246.33 181.309 227V202Z" fill="white"/>
<path d="M181.309 360C181.309 340.67 197.698 325 217.914 325H465.778C485.995 325 502.383 340.67 502.383 360V385C502.383 404.33 485.995 420 465.778 420H217.914C197.698 420 181.309 404.33 181.309 385V360Z" fill="white"/>
<path d="M181.309 518C181.309 498.67 197.698 483 217.914 483H244.06C264.276 483 280.664 498.67 280.664 518V590C280.664 609.33 264.276 625 244.06 625H217.914C197.698 625 181.309 609.33 181.309 590V518Z" fill="white"/>
<path d="M971.95 743.35C921.517 743.35 881.567 734.283 852.1 716.15C822.633 698.017 801.383 672.233 788.35 638.8C775.883 604.8 769.65 564.283 769.65 517.25V260.55C769.65 213.517 775.883 173.283 788.35 139.85C801.383 106.417 822.633 80.9166 852.1 63.35C881.567 45.7833 921.517 37 971.95 37C1022.95 37 1063.18 46.0666 1092.65 64.2C1122.68 81.7666 1143.93 107.267 1156.4 140.7C1169.43 173.567 1175.95 213.517 1175.95 260.55V517.25C1175.95 564.283 1169.43 604.8 1156.4 638.8C1143.93 672.233 1122.68 698.017 1092.65 716.15C1063.18 734.283 1022.95 743.35 971.95 743.35ZM971.95 642.2C990.083 642.2 1003.4 638.233 1011.9 630.3C1020.4 621.8 1026.07 610.75 1028.9 597.15C1031.73 582.983 1033.15 567.967 1033.15 552.1V226.55C1033.15 210.683 1031.73 195.95 1028.9 182.35C1026.07 168.75 1020.4 157.983 1011.9 150.05C1003.4 141.55 990.083 137.3 971.95 137.3C954.95 137.3 942.2 141.55 933.7 150.05C925.2 157.983 919.533 168.75 916.7 182.35C913.867 195.95 912.45 210.683 912.45 226.55V552.1C912.45 567.967 913.583 582.983 915.85 597.15C918.683 610.75 924.35 621.8 932.85 630.3C941.35 638.233 954.383 642.2 971.95 642.2ZM1269.6 734V45.4999H1448.1C1494.56 45.4999 1534.23 50.8833 1567.1 61.65C1600.53 71.85 1626.03 90.2666 1643.6 116.9C1661.73 143.533 1670.8 180.367 1670.8 227.4C1670.8 255.733 1668.25 280.95 1663.15 303.05C1658.61 324.583 1650.11 343.567 1637.65 360C1625.75 375.867 1608.75 388.617 1586.65 398.25L1681.85 734H1538.2L1459.15 422.05H1409.85V734H1269.6ZM1409.85 338.75H1450.65C1473.31 338.75 1491.16 335.067 1504.2 327.7C1517.23 320.333 1526.3 309.283 1531.4 294.55C1537.06 279.25 1539.9 260.55 1539.9 238.45C1539.9 206.717 1533.95 182.633 1522.05 166.2C1510.71 149.2 1489.18 140.7 1457.45 140.7H1409.85V338.75ZM1762.6 734L1774.5 45.4999H1923.25L2008.25 479.85L2099.2 45.4999H2242.85L2254.75 734H2152.75L2141.7 267.35L2054.15 734H1966.6L1874.8 263.95L1865.45 734H1762.6Z" fill="#2EC4B6"/>
<path d="M83 118C83 84.8629 111.111 58 145.788 58H628.212C662.889 58 691 84.8629 691 118V644C691 693.706 648.833 734 596.818 734H177.182C125.167 734 83 693.706 83 644V118Z" fill="#2EC4B6"/>
<path d="M181.368 202C181.368 182.67 197.767 167 217.995 167H554.959C575.187 167 591.585 182.67 591.585 202V227C591.585 246.33 575.187 262 554.959 262H217.995C197.767 262 181.368 246.33 181.368 227V202Z" fill="white"/>
<path d="M181.368 360C181.368 340.67 197.767 325 217.995 325H466.009C486.237 325 502.635 340.67 502.635 360V385C502.635 404.33 486.237 420 466.009 420H217.995C197.767 420 181.368 404.33 181.368 385V360Z" fill="white"/>
<path d="M181.368 518C181.368 498.67 197.767 483 217.995 483H244.157C264.385 483 280.783 498.67 280.783 518V590C280.783 609.33 264.385 625 244.157 625H217.995C197.767 625 181.368 609.33 181.368 590V518Z" fill="white"/>
</svg>
