<svg xmlns="http://www.w3.org/2000/svg" version="1.1" xmlns:xlink="http://www.w3.org/1999/xlink" xmlns:svgjs="http://svgjs.dev/svgjs" viewBox="0 0 1422 800"><g stroke-width="3.5" stroke="#0b132b" fill="none" stroke-linecap="butt"><line x1="54" y1="0" x2="0" y2="54" opacity="1.00"></line><line x1="54" y1="0" x2="108" y2="54" opacity="1.00"></line><line x1="108" y1="0" x2="162" y2="54" opacity="1.00"></line><line x1="216" y1="0" x2="162" y2="54" opacity="1.00"></line><line x1="270" y1="0" x2="216" y2="54" opacity="1.00"></line><line x1="324" y1="0" x2="270" y2="54" opacity="1.00"></line><line x1="378" y1="0" x2="324" y2="54" opacity="1.00"></line><line x1="378" y1="0" x2="432" y2="54" opacity="1.00"></line><line x1="432" y1="0" x2="486" y2="54" opacity="1.00"></line><line x1="486" y1="0" x2="540" y2="54" opacity="1.00"></line><line x1="594" y1="0" x2="540" y2="54" opacity="1.00"></line><line x1="648" y1="0" x2="594" y2="54" opacity="1.00"></line><line x1="702" y1="0" x2="648" y2="54" opacity="1.00"></line><line x1="702" y1="0" x2="756" y2="54" opacity="1.00"></line><line x1="756" y1="0" x2="810" y2="54" opacity="1.00"></line><line x1="810" y1="0" x2="864" y2="54" opacity="1.00"></line><line x1="918" y1="0" x2="864" y2="54" opacity="1.00"></line><line x1="972" y1="0" x2="918" y2="54" opacity="1.00"></line><line x1="1026" y1="0" x2="972" y2="54" opacity="1.00"></line><line x1="1026" y1="0" x2="1080" y2="54" opacity="1.00"></line><line x1="1134" y1="0" x2="1080" y2="54" opacity="1.00"></line><line x1="1188" y1="0" x2="1134" y2="54" opacity="1.00"></line><line x1="1242" y1="0" x2="1188" y2="54" opacity="1.00"></line><line x1="1296" y1="0" x2="1242" y2="54" opacity="1.00"></line><line x1="1296" y1="0" x2="1350" y2="54" opacity="1.00"></line><line x1="1404" y1="0" x2="1350" y2="54" opacity="1.00"></line><line x1="1404" y1="0" x2="1458" y2="54" opacity="1.00"></line><line x1="54" y1="54" x2="0" y2="108" opacity="0.94"></line><line x1="108" y1="54" x2="54" y2="108" opacity="0.94"></line><line x1="162" y1="54" x2="108" y2="108" opacity="0.94"></line><line x1="162" y1="54" x2="216" y2="108" opacity="0.94"></line><line x1="216" y1="54" x2="270" y2="108" opacity="0.94"></line><line x1="324" y1="54" x2="270" y2="108" opacity="0.94"></line><line x1="378" y1="54" x2="324" y2="108" opacity="0.94"></line><line x1="378" y1="54" x2="432" y2="108" opacity="0.94"></line><line x1="432" y1="54" x2="486" y2="108" opacity="0.94"></line><line x1="486" y1="54" x2="540" y2="108" opacity="0.94"></line><line x1="594" y1="54" x2="540" y2="108" opacity="0.94"></line><line x1="594" y1="54" x2="648" y2="108" opacity="0.94"></line><line x1="702" y1="54" x2="648" y2="108" opacity="0.94"></line><line x1="702" y1="54" x2="756" y2="108" opacity="0.94"></line><line x1="756" y1="54" x2="810" y2="108" opacity="0.94"></line><line x1="810" y1="54" x2="864" y2="108" opacity="0.94"></line><line x1="918" y1="54" x2="864" y2="108" opacity="0.94"></line><line x1="972" y1="54" x2="918" y2="108" opacity="0.94"></line><line x1="972" y1="54" x2="1026" y2="108" opacity="0.94"></line><line x1="1080" y1="54" x2="1026" y2="108" opacity="0.94"></line><line x1="1134" y1="54" x2="1080" y2="108" opacity="0.94"></line><line x1="1134" y1="54" x2="1188" y2="108" opacity="0.94"></line><line x1="1242" y1="54" x2="1188" y2="108" opacity="0.94"></line><line x1="1242" y1="54" x2="1296" y2="108" opacity="0.94"></line><line x1="1350" y1="54" x2="1296" y2="108" opacity="0.94"></line><line x1="1350" y1="54" x2="1404" y2="108" opacity="0.94"></line><line x1="1404" y1="54" x2="1458" y2="108" opacity="0.94"></line><line x1="54" y1="108" x2="0" y2="162" opacity="0.87"></line><line x1="54" y1="108" x2="108" y2="162" opacity="0.87"></line><line x1="108" y1="108" x2="162" y2="162" opacity="0.87"></line><line x1="162" y1="108" x2="216" y2="162" opacity="0.87"></line><line x1="216" y1="108" x2="270" y2="162" opacity="0.87"></line><line x1="324" y1="108" x2="270" y2="162" opacity="0.87"></line><line x1="324" y1="108" x2="378" y2="162" opacity="0.87"></line><line x1="432" y1="108" x2="378" y2="162" opacity="0.87"></line><line x1="432" y1="108" x2="486" y2="162" opacity="0.87"></line><line x1="540" y1="108" x2="486" y2="162" opacity="0.87"></line><line x1="540" y1="108" x2="594" y2="162" opacity="0.87"></line><line x1="594" y1="108" x2="648" y2="162" opacity="0.87"></line><line x1="648" y1="108" x2="702" y2="162" opacity="0.87"></line><line x1="756" y1="108" x2="702" y2="162" opacity="0.87"></line><line x1="756" y1="108" x2="810" y2="162" opacity="0.87"></line><line x1="810" y1="108" x2="864" y2="162" opacity="0.87"></line><line x1="864" y1="108" x2="918" y2="162" opacity="0.87"></line><line x1="918" y1="108" x2="972" y2="162" opacity="0.87"></line><line x1="1026" y1="108" x2="972" y2="162" opacity="0.87"></line><line x1="1026" y1="108" x2="1080" y2="162" opacity="0.87"></line><line x1="1134" y1="108" x2="1080" y2="162" opacity="0.87"></line><line x1="1188" y1="108" x2="1134" y2="162" opacity="0.87"></line><line x1="1242" y1="108" x2="1188" y2="162" opacity="0.87"></line><line x1="1242" y1="108" x2="1296" y2="162" opacity="0.87"></line><line x1="1350" y1="108" x2="1296" y2="162" opacity="0.87"></line><line x1="1350" y1="108" x2="1404" y2="162" opacity="0.87"></line><line x1="1404" y1="108" x2="1458" y2="162" opacity="0.87"></line><line x1="54" y1="162" x2="0" y2="216" opacity="0.81"></line><line x1="108" y1="162" x2="54" y2="216" opacity="0.81"></line><line x1="162" y1="162" x2="108" y2="216" opacity="0.81"></line><line x1="162" y1="162" x2="216" y2="216" opacity="0.81"></line><line x1="216" y1="162" x2="270" y2="216" opacity="0.81"></line><line x1="270" y1="162" x2="324" y2="216" opacity="0.81"></line><line x1="378" y1="162" x2="324" y2="216" opacity="0.81"></line><line x1="378" y1="162" x2="432" y2="216" opacity="0.81"></line><line x1="432" y1="162" x2="486" y2="216" opacity="0.81"></line><line x1="540" y1="162" x2="486" y2="216" opacity="0.81"></line><line x1="594" y1="162" x2="540" y2="216" opacity="0.81"></line><line x1="594" y1="162" x2="648" y2="216" opacity="0.81"></line><line x1="702" y1="162" x2="648" y2="216" opacity="0.81"></line><line x1="702" y1="162" x2="756" y2="216" opacity="0.81"></line><line x1="756" y1="162" x2="810" y2="216" opacity="0.81"></line><line x1="810" y1="162" x2="864" y2="216" opacity="0.81"></line><line x1="864" y1="162" x2="918" y2="216" opacity="0.81"></line><line x1="972" y1="162" x2="918" y2="216" opacity="0.81"></line><line x1="972" y1="162" x2="1026" y2="216" opacity="0.81"></line><line x1="1080" y1="162" x2="1026" y2="216" opacity="0.81"></line><line x1="1134" y1="162" x2="1080" y2="216" opacity="0.81"></line><line x1="1188" y1="162" x2="1134" y2="216" opacity="0.81"></line><line x1="1188" y1="162" x2="1242" y2="216" opacity="0.81"></line><line x1="1296" y1="162" x2="1242" y2="216" opacity="0.81"></line><line x1="1350" y1="162" x2="1296" y2="216" opacity="0.81"></line><line x1="1404" y1="162" x2="1350" y2="216" opacity="0.81"></line><line x1="1458" y1="162" x2="1404" y2="216" opacity="0.81"></line><line x1="54" y1="216" x2="0" y2="270" opacity="0.74"></line><line x1="108" y1="216" x2="54" y2="270" opacity="0.74"></line><line x1="162" y1="216" x2="108" y2="270" opacity="0.74"></line><line x1="216" y1="216" x2="162" y2="270" opacity="0.74"></line><line x1="216" y1="216" x2="270" y2="270" opacity="0.74"></line><line x1="324" y1="216" x2="270" y2="270" opacity="0.74"></line><line x1="324" y1="216" x2="378" y2="270" opacity="0.74"></line><line x1="432" y1="216" x2="378" y2="270" opacity="0.74"></line><line x1="432" y1="216" x2="486" y2="270" opacity="0.74"></line><line x1="540" y1="216" x2="486" y2="270" opacity="0.74"></line><line x1="540" y1="216" x2="594" y2="270" opacity="0.74"></line><line x1="648" y1="216" x2="594" y2="270" opacity="0.74"></line><line x1="648" y1="216" x2="702" y2="270" opacity="0.74"></line><line x1="702" y1="216" x2="756" y2="270" opacity="0.74"></line><line x1="756" y1="216" x2="810" y2="270" opacity="0.74"></line><line x1="864" y1="216" x2="810" y2="270" opacity="0.74"></line><line x1="864" y1="216" x2="918" y2="270" opacity="0.74"></line><line x1="918" y1="216" x2="972" y2="270" opacity="0.74"></line><line x1="1026" y1="216" x2="972" y2="270" opacity="0.74"></line><line x1="1080" y1="216" x2="1026" y2="270" opacity="0.74"></line><line x1="1134" y1="216" x2="1080" y2="270" opacity="0.74"></line><line x1="1188" y1="216" x2="1134" y2="270" opacity="0.74"></line><line x1="1188" y1="216" x2="1242" y2="270" opacity="0.74"></line><line x1="1296" y1="216" x2="1242" y2="270" opacity="0.74"></line><line x1="1350" y1="216" x2="1296" y2="270" opacity="0.74"></line><line x1="1350" y1="216" x2="1404" y2="270" opacity="0.74"></line><line x1="1404" y1="216" x2="1458" y2="270" opacity="0.74"></line><line x1="0" y1="270" x2="54" y2="324" opacity="0.68"></line><line x1="108" y1="270" x2="54" y2="324" opacity="0.68"></line><line x1="108" y1="270" x2="162" y2="324" opacity="0.68"></line><line x1="162" y1="270" x2="216" y2="324" opacity="0.68"></line><line x1="216" y1="270" x2="270" y2="324" opacity="0.68"></line><line x1="324" y1="270" x2="270" y2="324" opacity="0.68"></line><line x1="378" y1="270" x2="324" y2="324" opacity="0.68"></line><line x1="378" y1="270" x2="432" y2="324" opacity="0.68"></line><line x1="486" y1="270" x2="432" y2="324" opacity="0.68"></line><line x1="540" y1="270" x2="486" y2="324" opacity="0.68"></line><line x1="540" y1="270" x2="594" y2="324" opacity="0.68"></line><line x1="594" y1="270" x2="648" y2="324" opacity="0.68"></line><line x1="702" y1="270" x2="648" y2="324" opacity="0.68"></line><line x1="702" y1="270" x2="756" y2="324" opacity="0.68"></line><line x1="756" y1="270" x2="810" y2="324" opacity="0.68"></line><line x1="864" y1="270" x2="810" y2="324" opacity="0.68"></line><line x1="918" y1="270" x2="864" y2="324" opacity="0.68"></line><line x1="918" y1="270" x2="972" y2="324" opacity="0.68"></line><line x1="972" y1="270" x2="1026" y2="324" opacity="0.68"></line><line x1="1080" y1="270" x2="1026" y2="324" opacity="0.68"></line><line x1="1080" y1="270" x2="1134" y2="324" opacity="0.68"></line><line x1="1188" y1="270" x2="1134" y2="324" opacity="0.68"></line><line x1="1242" y1="270" x2="1188" y2="324" opacity="0.68"></line><line x1="1296" y1="270" x2="1242" y2="324" opacity="0.68"></line><line x1="1350" y1="270" x2="1296" y2="324" opacity="0.68"></line><line x1="1350" y1="270" x2="1404" y2="324" opacity="0.68"></line><line x1="1458" y1="270" x2="1404" y2="324" opacity="0.68"></line><line x1="0" y1="324" x2="54" y2="378" opacity="0.62"></line><line x1="108" y1="324" x2="54" y2="378" opacity="0.62"></line><line x1="162" y1="324" x2="108" y2="378" opacity="0.62"></line><line x1="216" y1="324" x2="162" y2="378" opacity="0.62"></line><line x1="216" y1="324" x2="270" y2="378" opacity="0.62"></line><line x1="270" y1="324" x2="324" y2="378" opacity="0.62"></line><line x1="324" y1="324" x2="378" y2="378" opacity="0.62"></line><line x1="378" y1="324" x2="432" y2="378" opacity="0.62"></line><line x1="432" y1="324" x2="486" y2="378" opacity="0.62"></line><line x1="486" y1="324" x2="540" y2="378" opacity="0.62"></line><line x1="540" y1="324" x2="594" y2="378" opacity="0.62"></line><line x1="648" y1="324" x2="594" y2="378" opacity="0.62"></line><line x1="702" y1="324" x2="648" y2="378" opacity="0.62"></line><line x1="702" y1="324" x2="756" y2="378" opacity="0.62"></line><line x1="810" y1="324" x2="756" y2="378" opacity="0.62"></line><line x1="810" y1="324" x2="864" y2="378" opacity="0.62"></line><line x1="864" y1="324" x2="918" y2="378" opacity="0.62"></line><line x1="972" y1="324" x2="918" y2="378" opacity="0.62"></line><line x1="972" y1="324" x2="1026" y2="378" opacity="0.62"></line><line x1="1026" y1="324" x2="1080" y2="378" opacity="0.62"></line><line x1="1080" y1="324" x2="1134" y2="378" opacity="0.62"></line><line x1="1188" y1="324" x2="1134" y2="378" opacity="0.62"></line><line x1="1188" y1="324" x2="1242" y2="378" opacity="0.62"></line><line x1="1242" y1="324" x2="1296" y2="378" opacity="0.62"></line><line x1="1296" y1="324" x2="1350" y2="378" opacity="0.62"></line><line x1="1350" y1="324" x2="1404" y2="378" opacity="0.62"></line><line x1="1458" y1="324" x2="1404" y2="378" opacity="0.62"></line><line x1="54" y1="378" x2="0" y2="432" opacity="0.55"></line><line x1="54" y1="378" x2="108" y2="432" opacity="0.55"></line><line x1="162" y1="378" x2="108" y2="432" opacity="0.55"></line><line x1="162" y1="378" x2="216" y2="432" opacity="0.55"></line><line x1="270" y1="378" x2="216" y2="432" opacity="0.55"></line><line x1="270" y1="378" x2="324" y2="432" opacity="0.55"></line><line x1="378" y1="378" x2="324" y2="432" opacity="0.55"></line><line x1="432" y1="378" x2="378" y2="432" opacity="0.55"></line><line x1="432" y1="378" x2="486" y2="432" opacity="0.55"></line><line x1="486" y1="378" x2="540" y2="432" opacity="0.55"></line><line x1="540" y1="378" x2="594" y2="432" opacity="0.55"></line><line x1="594" y1="378" x2="648" y2="432" opacity="0.55"></line><line x1="648" y1="378" x2="702" y2="432" opacity="0.55"></line><line x1="702" y1="378" x2="756" y2="432" opacity="0.55"></line><line x1="756" y1="378" x2="810" y2="432" opacity="0.55"></line><line x1="810" y1="378" x2="864" y2="432" opacity="0.55"></line><line x1="918" y1="378" x2="864" y2="432" opacity="0.55"></line><line x1="918" y1="378" x2="972" y2="432" opacity="0.55"></line><line x1="1026" y1="378" x2="972" y2="432" opacity="0.55"></line><line x1="1026" y1="378" x2="1080" y2="432" opacity="0.55"></line><line x1="1080" y1="378" x2="1134" y2="432" opacity="0.55"></line><line x1="1188" y1="378" x2="1134" y2="432" opacity="0.55"></line><line x1="1242" y1="378" x2="1188" y2="432" opacity="0.55"></line><line x1="1242" y1="378" x2="1296" y2="432" opacity="0.55"></line><line x1="1350" y1="378" x2="1296" y2="432" opacity="0.55"></line><line x1="1350" y1="378" x2="1404" y2="432" opacity="0.55"></line><line x1="1458" y1="378" x2="1404" y2="432" opacity="0.55"></line><line x1="0" y1="432" x2="54" y2="486" opacity="0.49"></line><line x1="108" y1="432" x2="54" y2="486" opacity="0.49"></line><line x1="162" y1="432" x2="108" y2="486" opacity="0.49"></line><line x1="162" y1="432" x2="216" y2="486" opacity="0.49"></line><line x1="270" y1="432" x2="216" y2="486" opacity="0.49"></line><line x1="324" y1="432" x2="270" y2="486" opacity="0.49"></line><line x1="378" y1="432" x2="324" y2="486" opacity="0.49"></line><line x1="432" y1="432" x2="378" y2="486" opacity="0.49"></line><line x1="486" y1="432" x2="432" y2="486" opacity="0.49"></line><line x1="486" y1="432" x2="540" y2="486" opacity="0.49"></line><line x1="594" y1="432" x2="540" y2="486" opacity="0.49"></line><line x1="594" y1="432" x2="648" y2="486" opacity="0.49"></line><line x1="648" y1="432" x2="702" y2="486" opacity="0.49"></line><line x1="702" y1="432" x2="756" y2="486" opacity="0.49"></line><line x1="810" y1="432" x2="756" y2="486" opacity="0.49"></line><line x1="864" y1="432" x2="810" y2="486" opacity="0.49"></line><line x1="918" y1="432" x2="864" y2="486" opacity="0.49"></line><line x1="918" y1="432" x2="972" y2="486" opacity="0.49"></line><line x1="972" y1="432" x2="1026" y2="486" opacity="0.49"></line><line x1="1026" y1="432" x2="1080" y2="486" opacity="0.49"></line><line x1="1134" y1="432" x2="1080" y2="486" opacity="0.49"></line><line x1="1188" y1="432" x2="1134" y2="486" opacity="0.49"></line><line x1="1188" y1="432" x2="1242" y2="486" opacity="0.49"></line><line x1="1242" y1="432" x2="1296" y2="486" opacity="0.49"></line><line x1="1296" y1="432" x2="1350" y2="486" opacity="0.49"></line><line x1="1350" y1="432" x2="1404" y2="486" opacity="0.49"></line><line x1="1404" y1="432" x2="1458" y2="486" opacity="0.49"></line><line x1="0" y1="486" x2="54" y2="540" opacity="0.42"></line><line x1="108" y1="486" x2="54" y2="540" opacity="0.42"></line><line x1="162" y1="486" x2="108" y2="540" opacity="0.42"></line><line x1="216" y1="486" x2="162" y2="540" opacity="0.42"></line><line x1="216" y1="486" x2="270" y2="540" opacity="0.42"></line><line x1="324" y1="486" x2="270" y2="540" opacity="0.42"></line><line x1="324" y1="486" x2="378" y2="540" opacity="0.42"></line><line x1="378" y1="486" x2="432" y2="540" opacity="0.42"></line><line x1="486" y1="486" x2="432" y2="540" opacity="0.42"></line><line x1="540" y1="486" x2="486" y2="540" opacity="0.42"></line><line x1="594" y1="486" x2="540" y2="540" opacity="0.42"></line><line x1="648" y1="486" x2="594" y2="540" opacity="0.42"></line><line x1="648" y1="486" x2="702" y2="540" opacity="0.42"></line><line x1="756" y1="486" x2="702" y2="540" opacity="0.42"></line><line x1="756" y1="486" x2="810" y2="540" opacity="0.42"></line><line x1="810" y1="486" x2="864" y2="540" opacity="0.42"></line><line x1="864" y1="486" x2="918" y2="540" opacity="0.42"></line><line x1="918" y1="486" x2="972" y2="540" opacity="0.42"></line><line x1="972" y1="486" x2="1026" y2="540" opacity="0.42"></line><line x1="1026" y1="486" x2="1080" y2="540" opacity="0.42"></line><line x1="1080" y1="486" x2="1134" y2="540" opacity="0.42"></line><line x1="1134" y1="486" x2="1188" y2="540" opacity="0.42"></line><line x1="1188" y1="486" x2="1242" y2="540" opacity="0.42"></line><line x1="1242" y1="486" x2="1296" y2="540" opacity="0.42"></line><line x1="1350" y1="486" x2="1296" y2="540" opacity="0.42"></line><line x1="1350" y1="486" x2="1404" y2="540" opacity="0.42"></line><line x1="1404" y1="486" x2="1458" y2="540" opacity="0.42"></line><line x1="54" y1="540" x2="0" y2="594" opacity="0.36"></line><line x1="54" y1="540" x2="108" y2="594" opacity="0.36"></line><line x1="162" y1="540" x2="108" y2="594" opacity="0.36"></line><line x1="216" y1="540" x2="162" y2="594" opacity="0.36"></line><line x1="270" y1="540" x2="216" y2="594" opacity="0.36"></line><line x1="270" y1="540" x2="324" y2="594" opacity="0.36"></line><line x1="378" y1="540" x2="324" y2="594" opacity="0.36"></line><line x1="378" y1="540" x2="432" y2="594" opacity="0.36"></line><line x1="432" y1="540" x2="486" y2="594" opacity="0.36"></line><line x1="540" y1="540" x2="486" y2="594" opacity="0.36"></line><line x1="594" y1="540" x2="540" y2="594" opacity="0.36"></line><line x1="648" y1="540" x2="594" y2="594" opacity="0.36"></line><line x1="702" y1="540" x2="648" y2="594" opacity="0.36"></line><line x1="756" y1="540" x2="702" y2="594" opacity="0.36"></line><line x1="810" y1="540" x2="756" y2="594" opacity="0.36"></line><line x1="864" y1="540" x2="810" y2="594" opacity="0.36"></line><line x1="864" y1="540" x2="918" y2="594" opacity="0.36"></line><line x1="972" y1="540" x2="918" y2="594" opacity="0.36"></line><line x1="972" y1="540" x2="1026" y2="594" opacity="0.36"></line><line x1="1080" y1="540" x2="1026" y2="594" opacity="0.36"></line><line x1="1134" y1="540" x2="1080" y2="594" opacity="0.36"></line><line x1="1134" y1="540" x2="1188" y2="594" opacity="0.36"></line><line x1="1188" y1="540" x2="1242" y2="594" opacity="0.36"></line><line x1="1296" y1="540" x2="1242" y2="594" opacity="0.36"></line><line x1="1296" y1="540" x2="1350" y2="594" opacity="0.36"></line><line x1="1404" y1="540" x2="1350" y2="594" opacity="0.36"></line><line x1="1458" y1="540" x2="1404" y2="594" opacity="0.36"></line><line x1="0" y1="594" x2="54" y2="648" opacity="0.29"></line><line x1="54" y1="594" x2="108" y2="648" opacity="0.29"></line><line x1="108" y1="594" x2="162" y2="648" opacity="0.29"></line><line x1="216" y1="594" x2="162" y2="648" opacity="0.29"></line><line x1="216" y1="594" x2="270" y2="648" opacity="0.29"></line><line x1="324" y1="594" x2="270" y2="648" opacity="0.29"></line><line x1="324" y1="594" x2="378" y2="648" opacity="0.29"></line><line x1="432" y1="594" x2="378" y2="648" opacity="0.29"></line><line x1="432" y1="594" x2="486" y2="648" opacity="0.29"></line><line x1="486" y1="594" x2="540" y2="648" opacity="0.29"></line><line x1="540" y1="594" x2="594" y2="648" opacity="0.29"></line><line x1="594" y1="594" x2="648" y2="648" opacity="0.29"></line><line x1="648" y1="594" x2="702" y2="648" opacity="0.29"></line><line x1="756" y1="594" x2="702" y2="648" opacity="0.29"></line><line x1="756" y1="594" x2="810" y2="648" opacity="0.29"></line><line x1="864" y1="594" x2="810" y2="648" opacity="0.29"></line><line x1="918" y1="594" x2="864" y2="648" opacity="0.29"></line><line x1="918" y1="594" x2="972" y2="648" opacity="0.29"></line><line x1="972" y1="594" x2="1026" y2="648" opacity="0.29"></line><line x1="1080" y1="594" x2="1026" y2="648" opacity="0.29"></line><line x1="1080" y1="594" x2="1134" y2="648" opacity="0.29"></line><line x1="1188" y1="594" x2="1134" y2="648" opacity="0.29"></line><line x1="1188" y1="594" x2="1242" y2="648" opacity="0.29"></line><line x1="1242" y1="594" x2="1296" y2="648" opacity="0.29"></line><line x1="1350" y1="594" x2="1296" y2="648" opacity="0.29"></line><line x1="1404" y1="594" x2="1350" y2="648" opacity="0.29"></line><line x1="1404" y1="594" x2="1458" y2="648" opacity="0.29"></line><line x1="54" y1="648" x2="0" y2="702" opacity="0.23"></line><line x1="108" y1="648" x2="54" y2="702" opacity="0.23"></line><line x1="162" y1="648" x2="108" y2="702" opacity="0.23"></line><line x1="162" y1="648" x2="216" y2="702" opacity="0.23"></line><line x1="216" y1="648" x2="270" y2="702" opacity="0.23"></line><line x1="270" y1="648" x2="324" y2="702" opacity="0.23"></line><line x1="378" y1="648" x2="324" y2="702" opacity="0.23"></line><line x1="378" y1="648" x2="432" y2="702" opacity="0.23"></line><line x1="486" y1="648" x2="432" y2="702" opacity="0.23"></line><line x1="486" y1="648" x2="540" y2="702" opacity="0.23"></line><line x1="540" y1="648" x2="594" y2="702" opacity="0.23"></line><line x1="648" y1="648" x2="594" y2="702" opacity="0.23"></line><line x1="648" y1="648" x2="702" y2="702" opacity="0.23"></line><line x1="702" y1="648" x2="756" y2="702" opacity="0.23"></line><line x1="756" y1="648" x2="810" y2="702" opacity="0.23"></line><line x1="864" y1="648" x2="810" y2="702" opacity="0.23"></line><line x1="918" y1="648" x2="864" y2="702" opacity="0.23"></line><line x1="972" y1="648" x2="918" y2="702" opacity="0.23"></line><line x1="1026" y1="648" x2="972" y2="702" opacity="0.23"></line><line x1="1080" y1="648" x2="1026" y2="702" opacity="0.23"></line><line x1="1080" y1="648" x2="1134" y2="702" opacity="0.23"></line><line x1="1134" y1="648" x2="1188" y2="702" opacity="0.23"></line><line x1="1242" y1="648" x2="1188" y2="702" opacity="0.23"></line><line x1="1296" y1="648" x2="1242" y2="702" opacity="0.23"></line><line x1="1350" y1="648" x2="1296" y2="702" opacity="0.23"></line><line x1="1404" y1="648" x2="1350" y2="702" opacity="0.23"></line><line x1="1404" y1="648" x2="1458" y2="702" opacity="0.23"></line><line x1="0" y1="702" x2="54" y2="756" opacity="0.17"></line><line x1="108" y1="702" x2="54" y2="756" opacity="0.17"></line><line x1="108" y1="702" x2="162" y2="756" opacity="0.17"></line><line x1="162" y1="702" x2="216" y2="756" opacity="0.17"></line><line x1="270" y1="702" x2="216" y2="756" opacity="0.17"></line><line x1="324" y1="702" x2="270" y2="756" opacity="0.17"></line><line x1="378" y1="702" x2="324" y2="756" opacity="0.17"></line><line x1="378" y1="702" x2="432" y2="756" opacity="0.17"></line><line x1="486" y1="702" x2="432" y2="756" opacity="0.17"></line><line x1="486" y1="702" x2="540" y2="756" opacity="0.17"></line><line x1="540" y1="702" x2="594" y2="756" opacity="0.17"></line><line x1="594" y1="702" x2="648" y2="756" opacity="0.17"></line><line x1="648" y1="702" x2="702" y2="756" opacity="0.17"></line><line x1="756" y1="702" x2="702" y2="756" opacity="0.17"></line><line x1="756" y1="702" x2="810" y2="756" opacity="0.17"></line><line x1="864" y1="702" x2="810" y2="756" opacity="0.17"></line><line x1="918" y1="702" x2="864" y2="756" opacity="0.17"></line><line x1="918" y1="702" x2="972" y2="756" opacity="0.17"></line><line x1="972" y1="702" x2="1026" y2="756" opacity="0.17"></line><line x1="1026" y1="702" x2="1080" y2="756" opacity="0.17"></line><line x1="1080" y1="702" x2="1134" y2="756" opacity="0.17"></line><line x1="1188" y1="702" x2="1134" y2="756" opacity="0.17"></line><line x1="1242" y1="702" x2="1188" y2="756" opacity="0.17"></line><line x1="1296" y1="702" x2="1242" y2="756" opacity="0.17"></line><line x1="1296" y1="702" x2="1350" y2="756" opacity="0.17"></line><line x1="1404" y1="702" x2="1350" y2="756" opacity="0.17"></line><line x1="1404" y1="702" x2="1458" y2="756" opacity="0.17"></line><line x1="54" y1="756" x2="0" y2="810" opacity="0.10"></line><line x1="54" y1="756" x2="108" y2="810" opacity="0.10"></line><line x1="162" y1="756" x2="108" y2="810" opacity="0.10"></line><line x1="216" y1="756" x2="162" y2="810" opacity="0.10"></line><line x1="216" y1="756" x2="270" y2="810" opacity="0.10"></line><line x1="324" y1="756" x2="270" y2="810" opacity="0.10"></line><line x1="378" y1="756" x2="324" y2="810" opacity="0.10"></line><line x1="432" y1="756" x2="378" y2="810" opacity="0.10"></line><line x1="432" y1="756" x2="486" y2="810" opacity="0.10"></line><line x1="486" y1="756" x2="540" y2="810" opacity="0.10"></line><line x1="594" y1="756" x2="540" y2="810" opacity="0.10"></line><line x1="594" y1="756" x2="648" y2="810" opacity="0.10"></line><line x1="648" y1="756" x2="702" y2="810" opacity="0.10"></line><line x1="702" y1="756" x2="756" y2="810" opacity="0.10"></line><line x1="756" y1="756" x2="810" y2="810" opacity="0.10"></line><line x1="810" y1="756" x2="864" y2="810" opacity="0.10"></line><line x1="864" y1="756" x2="918" y2="810" opacity="0.10"></line><line x1="918" y1="756" x2="972" y2="810" opacity="0.10"></line><line x1="1026" y1="756" x2="972" y2="810" opacity="0.10"></line><line x1="1080" y1="756" x2="1026" y2="810" opacity="0.10"></line><line x1="1134" y1="756" x2="1080" y2="810" opacity="0.10"></line><line x1="1188" y1="756" x2="1134" y2="810" opacity="0.10"></line><line x1="1242" y1="756" x2="1188" y2="810" opacity="0.10"></line><line x1="1242" y1="756" x2="1296" y2="810" opacity="0.10"></line><line x1="1296" y1="756" x2="1350" y2="810" opacity="0.10"></line><line x1="1404" y1="756" x2="1350" y2="810" opacity="0.10"></line><line x1="1458" y1="756" x2="1404" y2="810" opacity="0.10"></line></g></svg>