<?xml version="1.0" encoding="utf-8"?>

<svg version="1.1" id="Icons" xmlns="http://www.w3.org/2000/svg" xmlns:xlink="http://www.w3.org/1999/xlink" x="0px" y="0px"
	 viewBox="0 0 32 32" style="enable-background:new 0 0 32 32;" xml:space="preserve">
<path fill="#2EC4B6" d="M29,17.6c-1.2-0.4-2-1-2-1.6s0.8-1.3,2-1.6c0.5-0.2,0.8-0.7,0.7-1.2c-0.4-1.8-1-3.4-2.1-4.9c-0.3-0.4-0.8-0.6-1.3-0.3
	c-1.1,0.6-2.2,0.7-2.6,0.3c-0.4-0.4-0.3-1.5,0.3-2.6c0.2-0.5,0.1-1-0.3-1.3c-1.5-1-3.2-1.7-4.9-2.1c-0.5-0.1-1,0.2-1.2,0.7
	c-0.4,1.2-1,2-1.6,2s-1.3-0.8-1.6-2c-0.2-0.5-0.7-0.8-1.2-0.7c-1.8,0.4-3.4,1-4.9,2.1C7.8,4.6,7.7,5.2,7.9,5.6
	c0.6,1.1,0.7,2.2,0.3,2.6C7.8,8.6,6.8,8.5,5.6,7.9c-0.5-0.2-1-0.1-1.3,0.3c-1,1.5-1.7,3.2-2.1,4.9c-0.1,0.5,0.2,1,0.7,1.2
	c1.2,0.4,2,1,2,1.6s-0.8,1.3-2,1.6c-0.5,0.2-0.8,0.7-0.7,1.2c0.4,1.8,1,3.4,2.1,4.9c0.3,0.4,0.8,0.6,1.3,0.3
	c1.1-0.6,2.2-0.7,2.6-0.3c0.4,0.4,0.3,1.5-0.3,2.6c-0.2,0.5-0.1,1,0.3,1.3c1.5,1,3.2,1.7,4.9,2.1c0.5,0.1,1-0.2,1.2-0.7
	c0.4-1.2,1-2,1.6-2s1.3,0.8,1.6,2c0.1,0.4,0.5,0.7,1,0.7c0.1,0,0.1,0,0.2,0c1.8-0.4,3.4-1,4.9-2.1c0.4-0.3,0.6-0.8,0.3-1.3
	c-0.6-1.1-0.7-2.2-0.3-2.6c0.4-0.4,1.5-0.3,2.6,0.3c0.5,0.2,1,0.1,1.3-0.3c1-1.5,1.7-3.2,2.1-4.9C29.8,18.3,29.5,17.8,29,17.6z
	 M16,23c-3.9,0-7-3.1-7-7s3.1-7,7-7s7,3.1,7,7S19.9,23,16,23z"/>
</svg>
