<?xml version="1.0" encoding="iso-8859-1"?>
<!-- Generator: Adobe Illustrator 16.0.0, SVG Export Plug-In . SVG Version: 6.00 Build 0)  -->
<!DOCTYPE svg PUBLIC "-//W3C//DTD SVG 1.1//EN" "http://www.w3.org/Graphics/SVG/1.1/DTD/svg11.dtd">
<svg version="1.1" id="Capa_1" xmlns="http://www.w3.org/2000/svg" xmlns:xlink="http://www.w3.org/1999/xlink" x="0px" y="0px"
	 width="576.402px" height="576.402px" viewBox="0 0 576.402 576.402" style="enable-background:new 0 0 576.402 576.402;"
	 xml:space="preserve">
<g>
	<g>
		<path fill="#2EC4B6" d="M344.053,484.053H232.35c-10.291,0-18.617,8.326-18.617,18.617c0,10.289,8.326,18.617,18.617,18.617h111.703
			c10.289,0,18.615-8.328,18.615-18.617C362.668,492.379,354.342,484.053,344.053,484.053z"/>
		<path fill="#2EC4B6" d="M133.977,111.448l-17.182-9.933c-2.831-1.637-6.047-2.5-9.306-2.5l0,0c-6.637,0-12.815,3.571-16.129,9.318l-9.186,15.934
			c-5.128,8.892-2.065,20.303,6.827,25.432l17.062,9.841c2.766,1.594,5.878,2.439,9.002,2.439c6.713,0,12.855-3.813,16.031-9.951
			c2.644-5.107,5.609-10.193,8.81-15.113c2.803-4.303,3.706-9.345,2.546-14.195C141.314,117.951,138.304,113.948,133.977,111.448z"
			/>
		<path fill="#2EC4B6" d="M280.021,56.218c2.426-0.309,5.291-0.621,8.179-0.621c2.889,0,5.752,0.315,8.176,0.621
			c0.771,0.098,1.551,0.146,2.32,0.146c9.699,0,17.301-7.687,17.301-17.5V18.62c0-10.267-8.354-18.62-18.621-18.62h-18.353
			c-10.267,0-18.62,8.354-18.62,18.62v20.245c0,9.813,7.598,17.5,17.301,17.5C278.47,56.365,279.253,56.316,280.021,56.218z"/>
		<path fill="#2EC4B6" d="M182.453,87.326c3.541,0,7.023-1.05,10.067-3.029c4.924-3.204,10.009-6.169,15.117-8.813
			c4.556-2.359,7.836-6.292,9.238-11.074c1.374-4.688,0.762-9.648-1.726-13.959l-9.841-17.063c-3.314-5.75-9.498-9.32-16.138-9.32
			l0,0c-3.253,0-6.466,0.863-9.293,2.491l-15.933,9.186c-4.312,2.485-7.393,6.5-8.681,11.304c-1.289,4.804-0.625,9.823,1.863,14.128
			l9.933,17.182C170.305,83.976,176.061,87.326,182.453,87.326z"/>
		<path fill="#2EC4B6" d="M485.041,108.333c-3.314-5.747-9.492-9.318-16.129-9.318l0,0c-3.26,0-6.479,0.866-9.305,2.5l-17.184,9.933
			c-4.328,2.503-7.34,6.505-8.479,11.273c-1.156,4.85-0.25,9.893,2.555,14.195c3.227,4.945,6.197,10.031,8.838,15.116
			c3.18,6.129,9.32,9.939,16.027,9.939c3.125,0,6.24-0.844,9.01-2.442l17.029-9.832c8.889-5.132,11.949-16.542,6.822-25.435
			L485.041,108.333z"/>
		<path fill="#2EC4B6" d="M368.791,75.487c5.117,2.647,10.191,5.603,15.086,8.782c3.045,1.977,6.521,3.021,10.059,3.021
			c6.398,0,12.158-3.354,15.402-8.969l9.9-17.143c5.135-8.889,2.082-20.3-6.809-25.438l-15.869-9.171
			c-2.826-1.634-6.045-2.5-9.305-2.5l0,0c-6.635,0-12.814,3.571-16.129,9.314l-9.842,17.062c-2.486,4.315-3.102,9.275-1.729,13.966
			C360.961,69.199,364.238,73.131,368.791,75.487z"/>
		<path fill="#2EC4B6" d="M55.613,223.411v18.357c0,10.266,8.354,18.62,18.62,18.62h20.318c5.123,0,9.93-2.126,13.191-5.835
			c3.256-3.706,4.75-8.736,4.094-13.801c-0.293-2.268-0.63-5.248-0.63-8.158c0-2.885,0.315-5.752,0.622-8.176
			c0.639-5.049-0.863-10.07-4.125-13.77c-3.274-3.718-8.097-5.848-13.226-5.848H74.233
			C63.967,204.791,55.613,213.144,55.613,223.411z"/>
		<path fill="#2EC4B6" d="M520.789,241.764v-18.357c0-10.266-8.355-18.62-18.621-18.62h-20.244c-5.129,0-9.951,2.133-13.227,5.848
			c-3.262,3.703-4.764,8.721-4.125,13.77c0.307,2.424,0.621,5.291,0.621,8.176c0,2.91-0.336,5.891-0.629,8.158
			c-0.656,5.064,0.838,10.095,4.094,13.801c3.262,3.708,8.068,5.838,13.191,5.838h20.318
			C512.434,260.384,520.789,252.034,520.789,241.764z"/>
		<path fill="#2EC4B6" d="M487.395,315.48l-17.461-10.062c-2.744-1.582-5.816-2.416-8.883-2.416l0,0c-6.896,0-13.158,4.229-15.949,10.768
			c-2.346,5.502-4.854,11.096-7.441,16.625c-4.248,9.076-0.814,20.088,7.824,25.076l14.123,8.158
			c2.826,1.635,6.045,2.496,9.301,2.496c6.635,0,12.818-3.566,16.133-9.311l9.18-15.902c2.488-4.309,3.146-9.328,1.857-14.133
			C494.791,321.977,491.705,317.961,487.395,315.48z"/>
		<path fill="#2EC4B6" d="M115.194,303.074L115.194,303.074c-3.063,0-6.132,0.836-8.877,2.418l-17.316,9.984c-4.309,2.484-7.393,6.5-8.681,11.305
			c-1.289,4.803-0.63,9.822,1.857,14.131l9.18,15.902c3.317,5.746,9.501,9.314,16.142,9.314c3.253,0,6.466-0.859,9.293-2.49
			l13.859-7.99c8.629-4.977,12.09-15.982,7.876-25.064c-2.604-5.611-5.095-11.23-7.402-16.699
			C128.353,307.318,122.101,303.074,115.194,303.074z"/>
		<path fill="#2EC4B6" d="M346.727,557.838c0-10.264-8.303-18.564-18.564-18.564H248.24c-10.26,0-18.565,8.301-18.565,18.564
			s8.302,18.564,18.565,18.564h79.924C338.424,576.402,346.727,568.102,346.727,557.838z"/>
		<path fill="#2EC4B6" d="M168.5,346.113c16.999,34.129,33.054,66.361,35.686,98.064c0.832,10.008,9.17,17.848,18.987,17.848h130.06
			c9.846,0,18.176-7.857,18.969-17.889c2.592-32.938,19.643-66.9,36.125-99.742c18.68-37.213,37.994-75.69,37.994-114.956
			c0-87.186-70.932-158.116-158.117-158.116c-87.186,0-158.116,70.931-158.116,158.116
			C130.084,268.98,149.613,308.193,168.5,346.113z M288.201,126.917c56.53,0,102.522,45.992,102.522,102.522
			c0,26.078-15.547,57.072-32.008,89.884l-0.07,0.141c-13.506,26.846-27.475,54.615-35.562,84.594
			c-0.318,1.18-1.916,2.375-2.83,2.375H255.97c-0.937,0-2.577-1.221-2.91-2.424c-8.002-28.898-21.637-56.236-34.823-82.672
			c-16.766-33.708-32.559-65.465-32.559-91.897C185.678,172.908,231.67,126.917,288.201,126.917z"/>
	</g>
</g>
<g>
</g>
<g>
</g>
<g>
</g>
<g>
</g>
<g>
</g>
<g>
</g>
<g>
</g>
<g>
</g>
<g>
</g>
<g>
</g>
<g>
</g>
<g>
</g>
<g>
</g>
<g>
</g>
<g>
</g>
</svg>
