<?xml version="1.0" encoding="utf-8"?>

<svg version="1.1" id="Icons" xmlns="http://www.w3.org/2000/svg" xmlns:xlink="http://www.w3.org/1999/xlink" x="0px" y="0px"
	 viewBox="0 0 32 32" style="enable-background:new 0 0 32 32;" xml:space="preserve">
<style type="text/css">
	.st0{fill:none;stroke:#000000;stroke-width:2;stroke-linecap:round;stroke-linejoin:round;stroke-miterlimit:10;}
</style>
<path fill="#2EC4B6" d="M29.8,20.4l-3-4C26.6,16.1,26.3,16,26,16h-9v-2h9c0.6,0,1-0.4,1-1V5c0-0.6-0.4-1-1-1h-9V2c0-0.6-0.4-1-1-1s-1,0.4-1,1v2H6
	C5.7,4,5.4,4.1,5.2,4.4l-3,4c-0.3,0.4-0.3,0.8,0,1.2l3,4C5.4,13.9,5.7,14,6,14h9v2H6c-0.6,0-1,0.4-1,1v8c0,0.6,0.4,1,1,1h9v3h-1
	c-0.6,0-1,0.4-1,1s0.4,1,1,1h4c0.6,0,1-0.4,1-1s-0.4-1-1-1h-1v-3h9c0.3,0,0.6-0.1,0.8-0.4l3-4C30.1,21.2,30.1,20.8,29.8,20.4z"/>
</svg>
