<svg width="2232" height="780" viewBox="0 0 2232 780" fill="none" xmlns="http://www.w3.org/2000/svg">
<path d="M0 109C0 75.8629 26.8629 49 60 49H521C554.137 49 581 75.8629 581 109V635C581 684.706 540.706 725 491 725H90C40.2944 725 0 684.706 0 635V109Z" fill="#2EC4B6"/>
<path d="M94 193C94 173.67 109.67 158 129 158H451C470.33 158 486 173.67 486 193V218C486 237.33 470.33 253 451 253H129C109.67 253 94 237.33 94 218V193Z" fill="white"/>
<path d="M94 351C94 331.67 109.67 316 129 316H366C385.33 316 401 331.67 401 351V376C401 395.33 385.33 411 366 411H129C109.67 411 94 395.33 94 376V351Z" fill="white"/>
<path d="M94 509C94 489.67 109.67 474 129 474H154C173.33 474 189 489.67 189 509V581C189 600.33 173.33 616 154 616H129C109.67 616 94 600.33 94 581V509Z" fill="white"/>
<path d="M839.95 747.35C789.517 747.35 749.567 738.283 720.1 720.15C690.633 702.017 669.383 676.233 656.35 642.8C643.883 608.8 637.65 568.283 637.65 521.25V264.55C637.65 217.517 643.883 177.283 656.35 143.85C669.383 110.417 690.633 84.9166 720.1 67.35C749.567 49.7833 789.517 41 839.95 41C890.95 41 931.183 50.0666 960.65 68.2C990.683 85.7666 1011.93 111.267 1024.4 144.7C1037.43 177.567 1043.95 217.517 1043.95 264.55V521.25C1043.95 568.283 1037.43 608.8 1024.4 642.8C1011.93 676.233 990.683 702.017 960.65 720.15C931.183 738.283 890.95 747.35 839.95 747.35ZM839.95 646.2C858.083 646.2 871.4 642.233 879.9 634.3C888.4 625.8 894.067 614.75 896.9 601.15C899.733 586.983 901.15 571.967 901.15 556.1V230.55C901.15 214.683 899.733 199.95 896.9 186.35C894.067 172.75 888.4 161.983 879.9 154.05C871.4 145.55 858.083 141.3 839.95 141.3C822.95 141.3 810.2 145.55 801.7 154.05C793.2 161.983 787.533 172.75 784.7 186.35C781.867 199.95 780.45 214.683 780.45 230.55V556.1C780.45 571.967 781.583 586.983 783.85 601.15C786.683 614.75 792.35 625.8 800.85 634.3C809.35 642.233 822.383 646.2 839.95 646.2ZM1137.6 738V49.4999H1316.1C1362.56 49.4999 1402.23 54.8833 1435.1 65.65C1468.53 75.85 1494.03 94.2666 1511.6 120.9C1529.73 147.533 1538.8 184.367 1538.8 231.4C1538.8 259.733 1536.25 284.95 1531.15 307.05C1526.61 328.583 1518.11 347.567 1505.65 364C1493.75 379.867 1476.75 392.617 1454.65 402.25L1549.85 738H1406.2L1327.15 426.05H1277.85V738H1137.6ZM1277.85 342.75H1318.65C1341.31 342.75 1359.16 339.067 1372.2 331.7C1385.23 324.333 1394.3 313.283 1399.4 298.55C1405.06 283.25 1407.9 264.55 1407.9 242.45C1407.9 210.717 1401.95 186.633 1390.05 170.2C1378.71 153.2 1357.18 144.7 1325.45 144.7H1277.85V342.75ZM1630.6 738L1642.5 49.4999H1791.25L1876.25 483.85L1967.2 49.4999H2110.85L2122.75 738H2020.75L2009.7 271.35L1922.15 738H1834.6L1742.8 267.95L1733.45 738H1630.6Z" fill="#2EC4B6"/>
</svg>
