<?xml version="1.0" encoding="utf-8"?>

<svg version="1.1" id="Icons" xmlns="http://www.w3.org/2000/svg" xmlns:xlink="http://www.w3.org/1999/xlink" x="0px" y="0px"
	 viewBox="0 0 32 32" style="enable-background:new 0 0 32 32;" xml:space="preserve">
<path fill="#2EC4B6" d="M24,3H8C5.2,3,3,5.2,3,8v16c0,2.8,2.2,5,5,5h16c2.8,0,5-2.2,5-5V8C29,5.2,26.8,3,24,3z M13,11h6c0.6,0,1,0.4,1,1s-0.4,1-1,1
	h-6c-0.6,0-1-0.4-1-1S12.4,11,13,11z M19,21h-6c-0.6,0-1-0.4-1-1s0.4-1,1-1h6c0.6,0,1,0.4,1,1S19.6,21,19,21z M22,17H10
	c-0.6,0-1-0.4-1-1s0.4-1,1-1h12c0.6,0,1,0.4,1,1S22.6,17,22,17z"/>
</svg>
