<svg width="4790" height="776" viewBox="0 0 4790 776" fill="none" xmlns="http://www.w3.org/2000/svg">
<path d="M1037 626V244.4H889.4V206H1229V244.4H1081.4V626H1037ZM1412.93 629C1386.13 629 1362.73 624 1342.73 614C1322.73 604 1307.13 589 1295.93 569C1285.13 549 1279.73 524 1279.73 494V311H1322.33V489.2C1322.33 522.8 1330.53 548.2 1346.93 565.4C1363.73 582.2 1387.13 590.6 1417.13 590.6C1439.13 590.6 1458.13 586.2 1474.13 577.4C1490.53 568.2 1502.93 555 1511.33 537.8C1520.13 520.6 1524.53 500 1524.53 476V311H1567.13V626H1526.33V539.6L1532.93 555.2C1522.93 578.4 1507.33 596.6 1486.13 609.8C1465.33 622.6 1440.93 629 1412.93 629ZM1685.85 626V311H1726.65V396.8L1722.45 381.8C1731.25 357.8 1746.05 339.6 1766.85 327.2C1787.65 314.4 1813.45 308 1844.25 308V349.4C1842.65 349.4 1841.05 349.4 1839.45 349.4C1837.85 349 1836.25 348.8 1834.65 348.8C1801.45 348.8 1775.45 359 1756.65 379.4C1737.85 399.4 1728.45 428 1728.45 465.2V626H1685.85ZM2084.59 629C2056.99 629 2032.19 622.8 2010.19 610.4C1988.19 597.6 1970.79 579.2 1957.99 555.2C1945.19 531.2 1938.79 502.2 1938.79 468.2C1938.79 433.8 1945.19 404.8 1957.99 381.2C1971.19 357.2 1988.79 339 2010.79 326.6C2032.79 314.2 2057.39 308 2084.59 308C2114.59 308 2141.39 314.8 2164.99 328.4C2188.99 341.6 2207.79 360.2 2221.39 384.2C2234.99 408.2 2241.79 436.2 2241.79 468.2C2241.79 499.8 2234.99 527.8 2221.39 552.2C2207.79 576.2 2188.99 595 2164.99 608.6C2141.39 622.2 2114.59 629 2084.59 629ZM1921.99 626V180.8H1964.59V404L1958.59 467.6L1962.79 531.2V626H1921.99ZM2081.59 591.2C2103.99 591.2 2123.99 586.2 2141.59 576.2C2159.19 565.8 2173.19 551.4 2183.59 533C2193.99 514.2 2199.19 492.6 2199.19 468.2C2199.19 443.4 2193.99 421.8 2183.59 403.4C2173.19 385 2159.19 370.8 2141.59 360.8C2123.99 350.4 2103.99 345.2 2081.59 345.2C2059.19 345.2 2038.99 350.4 2020.99 360.8C2003.39 370.8 1989.39 385 1978.99 403.4C1968.99 421.8 1963.99 443.4 1963.99 468.2C1963.99 492.6 1968.99 514.2 1978.99 533C1989.39 551.4 2003.39 565.8 2020.99 576.2C2038.99 586.2 2059.19 591.2 2081.59 591.2ZM2457.03 629C2426.63 629 2399.23 622.2 2374.83 608.6C2350.83 594.6 2331.83 575.6 2317.83 551.6C2303.83 527.2 2296.83 499.4 2296.83 468.2C2296.83 436.6 2303.83 408.8 2317.83 384.8C2331.83 360.8 2350.83 342 2374.83 328.4C2398.83 314.8 2426.23 308 2457.03 308C2488.23 308 2515.83 314.8 2539.83 328.4C2564.23 342 2583.23 360.8 2596.83 384.8C2610.83 408.8 2617.83 436.6 2617.83 468.2C2617.83 499.4 2610.83 527.2 2596.83 551.6C2583.23 575.6 2564.23 594.6 2539.83 608.6C2515.43 622.2 2487.83 629 2457.03 629ZM2457.03 591.2C2479.83 591.2 2500.03 586.2 2517.63 576.2C2535.23 565.8 2549.03 551.4 2559.03 533C2569.43 514.2 2574.63 492.6 2574.63 468.2C2574.63 443.4 2569.43 421.8 2559.03 403.4C2549.03 385 2535.23 370.8 2517.63 360.8C2500.03 350.4 2480.03 345.2 2457.63 345.2C2435.23 345.2 2415.23 350.4 2397.63 360.8C2380.03 370.8 2366.03 385 2355.63 403.4C2345.23 421.8 2340.03 443.4 2340.03 468.2C2340.03 492.6 2345.23 514.2 2355.63 533C2366.03 551.4 2380.03 565.8 2397.63 576.2C2415.23 586.2 2435.03 591.2 2457.03 591.2ZM2809.18 626L2623.18 206H2671.18L2845.18 601.4H2818.78L2993.98 206H3038.98L2852.98 626H2809.18ZM3200.71 629C3167.91 629 3139.11 622.2 3114.31 608.6C3089.51 594.6 3070.11 575.6 3056.11 551.6C3042.11 527.2 3035.11 499.4 3035.11 468.2C3035.11 437 3041.71 409.4 3054.91 385.4C3068.51 361.4 3086.91 342.6 3110.11 329C3133.71 315 3160.11 308 3189.31 308C3218.91 308 3245.11 314.8 3267.91 328.4C3291.11 341.6 3309.31 360.4 3322.51 384.8C3335.71 408.8 3342.31 436.6 3342.31 468.2C3342.31 470.2 3342.11 472.4 3341.71 474.8C3341.71 476.8 3341.71 479 3341.71 481.4H3067.51V449.6H3318.91L3302.11 462.2C3302.11 439.4 3297.11 419.2 3287.11 401.6C3277.51 383.6 3264.31 369.6 3247.51 359.6C3230.71 349.6 3211.31 344.6 3189.31 344.6C3167.71 344.6 3148.31 349.6 3131.11 359.6C3113.91 369.6 3100.51 383.6 3090.91 401.6C3081.31 419.6 3076.51 440.2 3076.51 463.4V470C3076.51 494 3081.71 515.2 3092.11 533.6C3102.91 551.6 3117.71 565.8 3136.51 576.2C3155.71 586.2 3177.51 591.2 3201.91 591.2C3221.11 591.2 3238.91 587.8 3255.31 581C3272.11 574.2 3286.51 563.8 3298.51 549.8L3322.51 577.4C3308.51 594.2 3290.91 607 3269.71 615.8C3248.91 624.6 3225.91 629 3200.71 629ZM3429.02 626V311H3469.82V396.8L3465.62 381.8C3474.42 357.8 3489.22 339.6 3510.02 327.2C3530.82 314.4 3556.62 308 3587.42 308V349.4C3585.82 349.4 3584.22 349.4 3582.62 349.4C3581.02 349 3579.42 348.8 3577.82 348.8C3544.62 348.8 3518.62 359 3499.82 379.4C3481.02 399.4 3471.62 428 3471.62 465.2V626H3429.02ZM3753.27 629C3727.27 629 3702.67 625.4 3679.47 618.2C3656.27 610.6 3638.07 601.2 3624.87 590L3644.07 556.4C3656.87 566 3673.27 574.4 3693.27 581.6C3713.27 588.4 3734.27 591.8 3756.27 591.8C3786.27 591.8 3807.87 587.2 3821.07 578C3834.27 568.4 3840.87 555.8 3840.87 540.2C3840.87 528.6 3837.07 519.6 3829.47 513.2C3822.27 506.4 3812.67 501.4 3800.67 498.2C3788.67 494.6 3775.27 491.6 3760.47 489.2C3745.67 486.8 3730.87 484 3716.07 480.8C3701.67 477.6 3688.47 473 3676.47 467C3664.47 460.6 3654.67 452 3647.07 441.2C3639.87 430.4 3636.27 416 3636.27 398C3636.27 380.8 3641.07 365.4 3650.67 351.8C3660.27 338.2 3674.27 327.6 3692.67 320C3711.47 312 3734.27 308 3761.07 308C3781.47 308 3801.87 310.8 3822.27 316.4C3842.67 321.6 3859.47 328.6 3872.67 337.4L3854.07 371.6C3840.07 362 3825.07 355.2 3809.07 351.2C3793.07 346.8 3777.07 344.6 3761.07 344.6C3732.67 344.6 3711.67 349.6 3698.07 359.6C3684.87 369.2 3678.27 381.6 3678.27 396.8C3678.27 408.8 3681.87 418.2 3689.07 425C3696.67 431.8 3706.47 437.2 3718.47 441.2C3730.87 444.8 3744.27 447.8 3758.67 450.2C3773.47 452.6 3788.07 455.6 3802.47 459.2C3817.27 462.4 3830.67 467 3842.67 473C3855.07 478.6 3864.87 486.8 3872.07 497.6C3879.67 508 3883.47 521.8 3883.47 539C3883.47 557.4 3878.27 573.4 3867.87 587C3857.87 600.2 3843.07 610.6 3823.47 618.2C3804.27 625.4 3780.87 629 3753.27 629ZM3961.63 626V311H4004.23V626H3961.63ZM3983.23 241.4C3974.43 241.4 3967.03 238.4 3961.03 232.4C3955.03 226.4 3952.03 219.2 3952.03 210.8C3952.03 202.4 3955.03 195.4 3961.03 189.8C3967.03 183.8 3974.43 180.8 3983.23 180.8C3992.03 180.8 3999.43 183.6 4005.43 189.2C4011.43 194.8 4014.43 201.8 4014.43 210.2C4014.43 219 4011.43 226.4 4005.43 232.4C3999.83 238.4 3992.43 241.4 3983.23 241.4ZM4251.17 629C4220.77 629 4193.37 622.2 4168.97 608.6C4144.97 594.6 4125.97 575.6 4111.97 551.6C4097.97 527.2 4090.97 499.4 4090.97 468.2C4090.97 436.6 4097.97 408.8 4111.97 384.8C4125.97 360.8 4144.97 342 4168.97 328.4C4192.97 314.8 4220.37 308 4251.17 308C4282.37 308 4309.97 314.8 4333.97 328.4C4358.37 342 4377.37 360.8 4390.97 384.8C4404.97 408.8 4411.97 436.6 4411.97 468.2C4411.97 499.4 4404.97 527.2 4390.97 551.6C4377.37 575.6 4358.37 594.6 4333.97 608.6C4309.57 622.2 4281.97 629 4251.17 629ZM4251.17 591.2C4273.97 591.2 4294.17 586.2 4311.77 576.2C4329.37 565.8 4343.17 551.4 4353.17 533C4363.57 514.2 4368.77 492.6 4368.77 468.2C4368.77 443.4 4363.57 421.8 4353.17 403.4C4343.17 385 4329.37 370.8 4311.77 360.8C4294.17 350.4 4274.17 345.2 4251.77 345.2C4229.37 345.2 4209.37 350.4 4191.77 360.8C4174.17 370.8 4160.17 385 4149.77 403.4C4139.37 421.8 4134.17 443.4 4134.17 468.2C4134.17 492.6 4139.37 514.2 4149.77 533C4160.17 551.4 4174.17 565.8 4191.77 576.2C4209.37 586.2 4229.17 591.2 4251.17 591.2ZM4659.74 308C4685.34 308 4707.74 313 4726.94 323C4746.54 332.6 4761.74 347.4 4772.54 367.4C4783.74 387.4 4789.34 412.6 4789.34 443V626H4746.74V447.2C4746.74 414 4738.34 389 4721.54 372.2C4705.14 355 4681.94 346.4 4651.94 346.4C4629.54 346.4 4609.94 351 4593.14 360.2C4576.74 369 4563.94 382 4554.74 399.2C4545.94 416 4541.54 436.4 4541.54 460.4V626H4498.94V311H4539.74V397.4L4533.14 381.2C4543.14 358.4 4559.14 340.6 4581.14 327.8C4603.14 314.6 4629.34 308 4659.74 308Z" fill="white"/>
<path d="M349.685 374.363C349.681 378.977 344.688 381.859 340.69 379.556L27.5404 199.126C20.867 195.28 20.8628 185.652 27.5328 181.801L341.009 0.815404C345.011 -1.49517 350.013 1.39567 350.008 6.01682L349.685 374.363Z" fill="#3A0CA3"/>
<path d="M659.829 181.789C666.492 185.644 666.484 195.266 659.815 199.109L346.681 379.556C342.681 381.87 337.676 378.983 337.676 374.362L338.004 6.00894C338.004 1.38779 343.009 -1.49863 347.009 0.815459L659.829 181.789Z" fill="#3A0CA3"/>
<path d="M9.31267 592.503C5.3147 594.807 0.321461 591.924 0.317382 587.31L4.11245e-06 225.899C-0.00675917 218.198 8.32995 213.38 15 217.23L328.476 398.216C332.478 400.526 332.475 406.304 328.471 408.611L9.31267 592.503Z" fill="#4CC9F0"/>
<path d="M331.158 764.809C331.152 772.507 322.815 777.311 316.151 773.457L3.3129 592.498C-0.691162 590.191 -0.693638 584.414 3.3084 582.103L322.476 398.21C326.478 395.9 331.48 398.791 331.476 403.412L331.158 764.809Z" fill="#4CC9F0"/>
<path d="M683.316 583.098C687.31 585.408 687.31 591.174 683.316 593.485L370.484 774.465C363.818 778.321 355.477 773.511 355.477 765.809L355.477 403.838C355.477 399.217 360.481 396.331 364.481 398.645L683.316 583.098Z" fill="#F72585"/>
<path d="M671.615 218.218C678.285 214.375 686.614 219.193 686.607 226.891L686.312 588.296C686.316 592.917 681.314 595.808 677.312 593.498L358.472 409.037C354.47 406.726 354.473 400.949 358.477 398.642L671.615 218.218Z" fill="#F72585"/>
</svg>
