<svg class="icon" style="width: 1em; height: 1em;vertical-align: middle;fill: #fff;overflow: hidden;" viewBox="0 0 1024 1024" version="1.1" xmlns="http://www.w3.org/2000/svg"><path d="M603.52 572.16c42.24 0 81.92 16.64 112 46.72l17.92 17.28 96.64-96L830.08 190.08c0-69.76-57.6-127.36-127.36-127.36L191.36 62.72c-70.4 0-127.36 57.6-127.36 127.36l0 572.8c0 69.76 57.6 127.36 127.36 127.36 0 0 227.2 0 256.64 0 37.12 0 47.36-33.28 25.6-69.12-38.4-65.28-37.76-147.2 17.28-202.88C521.6 588.8 560.64 572.16 603.52 572.16zM287.36 254.08l319.36 0c17.92 0 32 14.08 32 32 0 17.92-14.08 32-32 32L287.36 318.08c-17.92 0-32-14.08-32-32C255.36 268.16 269.44 254.08 287.36 254.08zM350.72 699.52l-64 0c-17.92 0-32-14.08-32-32s14.08-32 32-32l64 0c17.92 0 32 14.08 32 32S368.64 699.52 350.72 699.52zM287.36 508.8c-17.92 0-32-14.08-32-32 0-17.92 14.08-32 32-32l319.36 0c17.92 0 32 14.08 32 32 0 17.92-14.08 32-32 32L287.36 508.8zM1011.84 581.12c-12.16-12.16-31.36-12.16-43.52 0l-235.52 234.88-107.52-107.52c-12.16-12.16-32-12.16-43.52 0-12.16 12.16-12.16 31.36 0 43.52l131.2 131.2c12.16 12.16 32 12.16 43.52 0 3.2-3.2 255.36-258.56 255.36-258.56C1024 613.12 1024 593.28 1011.84 581.12z" /></svg>