<svg width="5216" height="2735" viewBox="0 0 5216 2735" fill="none" xmlns="http://www.w3.org/2000/svg">
<rect width="5216" height="2735" fill="#0B132B"/>
<path d="M1491 755C1491 721.863 1517.86 695 1551 695H2012C2045.14 695 2072 721.863 2072 755V1281C2072 1330.71 2031.71 1371 1982 1371H1581C1531.29 1371 1491 1330.71 1491 1281V755Z" fill="#2EC4B6"/>
<path d="M1585 839C1585 819.67 1600.67 804 1620 804H1942C1961.33 804 1977 819.67 1977 839V864C1977 883.33 1961.33 899 1942 899H1620C1600.67 899 1585 883.33 1585 864V839Z" fill="white"/>
<path d="M1585 997C1585 977.67 1600.67 962 1620 962H1857C1876.33 962 1892 977.67 1892 997V1022C1892 1041.33 1876.33 1057 1857 1057H1620C1600.67 1057 1585 1041.33 1585 1022V997Z" fill="white"/>
<path d="M1585 1155C1585 1135.67 1600.67 1120 1620 1120H1645C1664.33 1120 1680 1135.67 1680 1155V1227C1680 1246.33 1664.33 1262 1645 1262H1620C1600.67 1262 1585 1246.33 1585 1227V1155Z" fill="white"/>
<path d="M2330.95 1393.35C2280.52 1393.35 2240.57 1384.28 2211.1 1366.15C2181.63 1348.02 2160.38 1322.23 2147.35 1288.8C2134.88 1254.8 2128.65 1214.28 2128.65 1167.25V910.55C2128.65 863.517 2134.88 823.283 2147.35 789.85C2160.38 756.417 2181.63 730.917 2211.1 713.35C2240.57 695.783 2280.52 687 2330.95 687C2381.95 687 2422.18 696.067 2451.65 714.2C2481.68 731.767 2502.93 757.267 2515.4 790.7C2528.43 823.567 2534.95 863.517 2534.95 910.55V1167.25C2534.95 1214.28 2528.43 1254.8 2515.4 1288.8C2502.93 1322.23 2481.68 1348.02 2451.65 1366.15C2422.18 1384.28 2381.95 1393.35 2330.95 1393.35ZM2330.95 1292.2C2349.08 1292.2 2362.4 1288.23 2370.9 1280.3C2379.4 1271.8 2385.07 1260.75 2387.9 1247.15C2390.73 1232.98 2392.15 1217.97 2392.15 1202.1V876.55C2392.15 860.683 2390.73 845.95 2387.9 832.35C2385.07 818.75 2379.4 807.983 2370.9 800.05C2362.4 791.55 2349.08 787.3 2330.95 787.3C2313.95 787.3 2301.2 791.55 2292.7 800.05C2284.2 807.983 2278.53 818.75 2275.7 832.35C2272.87 845.95 2271.45 860.683 2271.45 876.55V1202.1C2271.45 1217.97 2272.58 1232.98 2274.85 1247.15C2277.68 1260.75 2283.35 1271.8 2291.85 1280.3C2300.35 1288.23 2313.38 1292.2 2330.95 1292.2ZM2628.6 1384V695.5H2807.1C2853.56 695.5 2893.23 700.883 2926.1 711.65C2959.53 721.85 2985.03 740.267 3002.6 766.9C3020.73 793.533 3029.8 830.367 3029.8 877.4C3029.8 905.733 3027.25 930.95 3022.15 953.05C3017.61 974.583 3009.11 993.567 2996.65 1010C2984.75 1025.87 2967.75 1038.62 2945.65 1048.25L3040.85 1384H2897.2L2818.15 1072.05H2768.85V1384H2628.6ZM2768.85 988.75H2809.65C2832.31 988.75 2850.16 985.067 2863.2 977.7C2876.23 970.333 2885.3 959.283 2890.4 944.55C2896.06 929.25 2898.9 910.55 2898.9 888.45C2898.9 856.717 2892.95 832.633 2881.05 816.2C2869.71 799.2 2848.18 790.7 2816.45 790.7H2768.85V988.75ZM3121.6 1384L3133.5 695.5H3282.25L3367.25 1129.85L3458.2 695.5H3601.85L3613.75 1384H3511.75L3500.7 917.35L3413.15 1384H3325.6L3233.8 913.95L3224.45 1384H3121.6Z" fill="#2EC4B6"/>
<path d="M804.5 1946.4C801.3 1935.8 796.1 1927.9 788.9 1922.7C781.9 1917.5 773.8 1914.9 764.6 1914.9C756.2 1914.9 748.5 1916.7 741.5 1920.3C734.5 1923.7 728.4 1928.9 723.2 1935.9C718.2 1942.9 714.2 1951.8 711.2 1962.6C708.4 1973.4 707 1986.1 707 2000.7C707 2015.3 708.4 2028 711.2 2038.8C714.2 2049.6 718.3 2058.6 723.5 2065.8C728.7 2073 734.9 2078.4 742.1 2082C749.3 2085.4 757.1 2087.1 765.5 2087.1C776.3 2087.1 786.1 2085 794.9 2080.8C803.9 2076.6 811.1 2071.6 816.5 2065.8L830.3 2083.5C822.7 2090.9 813.2 2097.3 801.8 2102.7C790.6 2107.9 778.1 2110.5 764.3 2110.5C751.7 2110.5 740 2108.2 729.2 2103.6C718.6 2098.8 709.4 2091.8 701.6 2082.6C693.8 2073.4 687.7 2062 683.3 2048.4C679.1 2034.6 677 2018.7 677 2000.7C677 1982.7 679.2 1966.9 683.6 1953.3C688 1939.5 694.1 1928.1 701.9 1919.1C709.7 1909.9 718.8 1903 729.2 1898.4C739.8 1893.8 751.3 1891.5 763.7 1891.5C780.1 1891.5 793.9 1894.9 805.1 1901.7C816.5 1908.5 824.8 1920.3 830 1937.1L804.5 1946.4ZM890.183 1947L891.683 1966.5C897.883 1959.5 905.283 1953.9 913.883 1949.7C922.483 1945.3 931.583 1942.9 941.183 1942.5L942.683 1964.1L939.083 1967.4C929.683 1967.6 921.183 1969.3 913.583 1972.5C906.183 1975.5 899.883 1979.7 894.683 1985.1V2106H865.883V1947H890.183ZM1040.85 2087.1C1051.05 2087.1 1059.85 2085.2 1067.25 2081.4C1074.85 2077.4 1080.95 2073.2 1085.55 2068.8L1098.45 2084.4C1092.25 2091.4 1084.15 2097.5 1074.15 2102.7C1064.15 2107.9 1052.75 2110.5 1039.95 2110.5C1029.35 2110.5 1019.55 2108.8 1010.55 2105.4C1001.55 2101.8 993.753 2096.5 987.153 2089.5C980.753 2082.3 975.653 2073.5 971.853 2063.1C968.253 2052.5 966.453 2040.3 966.453 2026.5C966.453 2012.7 968.253 2000.6 971.853 1990.2C975.453 1979.6 980.453 1970.8 986.853 1963.8C993.253 1956.6 1000.75 1951.3 1009.35 1947.9C1018.15 1944.3 1027.65 1942.5 1037.85 1942.5C1047.25 1942.5 1055.85 1944 1063.65 1947C1071.65 1949.8 1078.45 1954.2 1084.05 1960.2C1089.65 1966.2 1093.95 1973.7 1096.95 1982.7C1100.15 1991.5 1101.75 2001.9 1101.75 2013.9V2034.9H996.753C997.953 2052.7 1002.55 2065.9 1010.55 2074.5C1018.75 2082.9 1028.85 2087.1 1040.85 2087.1ZM1038.15 1965.9C1027.35 1965.9 1018.15 1969.9 1010.55 1977.9C1003.15 1985.7 998.653 1997.7 997.053 2013.9H1073.25C1073.25 1998.5 1070.15 1986.7 1063.95 1978.5C1057.95 1970.1 1049.35 1965.9 1038.15 1965.9ZM1203.1 1965.9C1186.3 1965.9 1175.4 1974.2 1170.4 1990.8L1145.5 1982.4C1153.5 1955.8 1172.7 1942.5 1203.1 1942.5C1224.1 1942.5 1239.2 1947.8 1248.4 1958.4C1257.8 1968.8 1262.5 1985.9 1262.5 2009.7V2080.5C1262.5 2083.7 1263.2 2085.9 1264.6 2087.1C1266.2 2088.1 1268.1 2088.6 1270.3 2088.6C1271.9 2088.6 1273.6 2088.4 1275.4 2088C1277.2 2087.4 1278.9 2086.7 1280.5 2085.9L1285.3 2104.5C1282.1 2106.1 1278.6 2107.5 1274.8 2108.7C1271 2109.9 1266.8 2110.5 1262.2 2110.5C1255 2110.5 1248.9 2108.8 1243.9 2105.4C1239.1 2101.8 1236.2 2095 1235.2 2085C1232.2 2088.2 1228.8 2091.4 1225 2094.6C1221.2 2097.6 1217 2100.3 1212.4 2102.7C1208 2105.1 1203.2 2107 1198 2108.4C1193 2109.8 1187.7 2110.5 1182.1 2110.5C1176.1 2110.5 1170.4 2109.3 1165 2106.9C1159.8 2104.7 1155.3 2101.6 1151.5 2097.6C1147.7 2093.6 1144.7 2088.9 1142.5 2083.5C1140.3 2077.9 1139.2 2071.9 1139.2 2065.5C1139.2 2049.1 1144.7 2036.3 1155.7 2027.1C1166.9 2017.9 1182.3 2013.3 1201.9 2013.3C1207.3 2013.3 1212.7 2013.7 1218.1 2014.5C1223.5 2015.3 1228.7 2016.5 1233.7 2018.1V1999.2C1233.7 1988.8 1231 1980.7 1225.6 1974.9C1220.2 1968.9 1212.7 1965.9 1203.1 1965.9ZM1190.8 2087.1C1198.4 2087.1 1205.8 2085.3 1213 2081.7C1220.4 2077.9 1227.3 2072.8 1233.7 2066.4V2037.3C1229.5 2035.9 1225 2034.8 1220.2 2034C1215.4 2033.2 1210.7 2032.8 1206.1 2032.8C1201.1 2032.8 1196.3 2033.3 1191.7 2034.3C1187.1 2035.3 1183 2037 1179.4 2039.4C1176 2041.8 1173.2 2045 1171 2049C1169 2052.8 1168 2057.5 1168 2063.1C1168 2069.7 1170.1 2075.4 1174.3 2080.2C1178.5 2084.8 1184 2087.1 1190.8 2087.1ZM1309.41 1947H1332.21V1914L1355.01 1908H1361.01V1947H1403.01V1968H1361.01V2071.8C1361.01 2081.4 1365.71 2086.2 1375.11 2086.2C1381.31 2086.2 1389.01 2083.4 1398.21 2077.8L1406.01 2095.8C1400.01 2100.4 1393.21 2104 1385.61 2106.6C1378.21 2109.2 1371.21 2110.5 1364.61 2110.5C1354.01 2110.5 1345.91 2107 1340.31 2100C1334.91 2092.8 1332.21 2082.4 1332.21 2068.8V1968H1309.41V1947ZM1507.55 2087.1C1517.75 2087.1 1526.55 2085.2 1533.95 2081.4C1541.55 2077.4 1547.65 2073.2 1552.25 2068.8L1565.15 2084.4C1558.95 2091.4 1550.85 2097.5 1540.85 2102.7C1530.85 2107.9 1519.45 2110.5 1506.65 2110.5C1496.05 2110.5 1486.25 2108.8 1477.25 2105.4C1468.25 2101.8 1460.45 2096.5 1453.85 2089.5C1447.45 2082.3 1442.35 2073.5 1438.55 2063.1C1434.95 2052.5 1433.15 2040.3 1433.15 2026.5C1433.15 2012.7 1434.95 2000.6 1438.55 1990.2C1442.15 1979.6 1447.15 1970.8 1453.55 1963.8C1459.95 1956.6 1467.45 1951.3 1476.05 1947.9C1484.85 1944.3 1494.35 1942.5 1504.55 1942.5C1513.95 1942.5 1522.55 1944 1530.35 1947C1538.35 1949.8 1545.15 1954.2 1550.75 1960.2C1556.35 1966.2 1560.65 1973.7 1563.65 1982.7C1566.85 1991.5 1568.45 2001.9 1568.45 2013.9V2034.9H1463.45C1464.65 2052.7 1469.25 2065.9 1477.25 2074.5C1485.45 2082.9 1495.55 2087.1 1507.55 2087.1ZM1504.85 1965.9C1494.05 1965.9 1484.85 1969.9 1477.25 1977.9C1469.85 1985.7 1465.35 1997.7 1463.75 2013.9H1539.95C1539.95 1998.5 1536.85 1986.7 1530.65 1978.5C1524.65 1970.1 1516.05 1965.9 1504.85 1965.9ZM1686.76 1947H1709.56V1928.7C1709.56 1909.9 1713.56 1896.5 1721.56 1888.5C1729.76 1880.5 1741.56 1876.5 1756.96 1876.5C1767.16 1876.5 1775.66 1878.6 1782.46 1882.8C1789.46 1887 1795.16 1895 1799.56 1906.8L1775.56 1914.9C1773.76 1910.1 1771.46 1906.4 1768.66 1903.8C1765.86 1901.2 1761.86 1899.9 1756.66 1899.9C1750.66 1899.9 1746.06 1902 1742.86 1906.2C1739.86 1910.2 1738.36 1916.7 1738.36 1925.7V1947H1777.36V1968H1738.36V2106H1709.56V1968H1686.76V1947ZM1805.22 2026.5C1805.22 2012.7 1807.02 2000.6 1810.62 1990.2C1814.42 1979.6 1819.52 1970.8 1825.92 1963.8C1832.32 1956.6 1839.92 1951.3 1848.72 1947.9C1857.72 1944.3 1867.32 1942.5 1877.52 1942.5C1887.72 1942.5 1897.22 1944.3 1906.02 1947.9C1915.02 1951.3 1922.72 1956.6 1929.12 1963.8C1935.72 1970.8 1940.82 1979.6 1944.42 1990.2C1948.22 2000.6 1950.12 2012.7 1950.12 2026.5C1950.12 2040.3 1948.22 2052.5 1944.42 2063.1C1940.82 2073.5 1935.72 2082.3 1929.12 2089.5C1922.72 2096.5 1915.02 2101.8 1906.02 2105.4C1897.22 2108.8 1887.72 2110.5 1877.52 2110.5C1867.32 2110.5 1857.72 2108.8 1848.72 2105.4C1839.92 2101.8 1832.32 2096.5 1825.92 2089.5C1819.52 2082.3 1814.42 2073.5 1810.62 2063.1C1807.02 2052.5 1805.22 2040.3 1805.22 2026.5ZM1835.22 2026.5C1835.22 2047.1 1839.12 2062.4 1846.92 2072.4C1854.92 2082.2 1865.12 2087.1 1877.52 2087.1C1890.12 2087.1 1900.32 2082.2 1908.12 2072.4C1916.12 2062.4 1920.12 2047.1 1920.12 2026.5C1920.12 2005.9 1916.12 1990.7 1908.12 1980.9C1900.32 1970.9 1890.12 1965.9 1877.52 1965.9C1865.12 1965.9 1854.92 1970.9 1846.92 1980.9C1839.12 1990.7 1835.22 2005.9 1835.22 2026.5ZM2025.44 1947L2026.94 1966.5C2033.14 1959.5 2040.54 1953.9 2049.14 1949.7C2057.74 1945.3 2066.84 1942.9 2076.44 1942.5L2077.94 1964.1L2074.34 1967.4C2064.94 1967.6 2056.44 1969.3 2048.84 1972.5C2041.44 1975.5 2035.14 1979.7 2029.94 1985.1V2106H2001.14V1947H2025.44ZM2135.01 1947L2136.51 1965.6C2142.31 1959.6 2149.11 1954.3 2156.91 1949.7C2164.91 1944.9 2173.71 1942.5 2183.31 1942.5C2195.51 1942.5 2205.31 1944.5 2212.71 1948.5C2220.11 1952.5 2225.51 1959 2228.91 1968C2234.71 1961.4 2241.71 1955.5 2249.91 1950.3C2258.31 1945.1 2267.61 1942.5 2277.81 1942.5C2286.81 1942.5 2294.51 1943.6 2300.91 1945.8C2307.51 1948 2312.81 1951.5 2316.81 1956.3C2320.81 1960.9 2323.71 1967 2325.51 1974.6C2327.51 1982.2 2328.51 1991.4 2328.51 2002.2V2106H2299.71V1999.2C2299.71 1977 2290.21 1965.9 2271.21 1965.9C2264.21 1965.9 2257.51 1967.6 2251.11 1971C2244.71 1974.2 2238.61 1978.7 2232.81 1984.5C2233.21 1987.3 2233.51 1990.1 2233.71 1992.9C2233.91 1995.7 2234.01 1998.8 2234.01 2002.2V2106H2205.21V1999.2C2205.21 1977 2195.71 1965.9 2176.71 1965.9C2170.11 1965.9 2163.61 1967.5 2157.21 1970.7C2151.01 1973.9 2145.11 1978.2 2139.51 1983.6V2106H2110.71V1947H2135.01ZM2432.31 1964.4C2424.71 1964.4 2418.31 1966.1 2413.11 1969.5C2407.91 1972.9 2405.31 1978.1 2405.31 1985.1C2405.31 1990.7 2407.31 1995.4 2411.31 1999.2C2415.31 2002.8 2420.31 2006.1 2426.31 2009.1C2432.31 2012.1 2438.71 2015.1 2445.51 2018.1C2452.51 2021.1 2459.01 2024.7 2465.01 2028.9C2471.01 2032.9 2476.01 2037.9 2480.01 2043.9C2484.01 2049.7 2486.01 2057.1 2486.01 2066.1C2486.01 2079.5 2481.11 2090.3 2471.31 2098.5C2461.51 2106.5 2447.91 2110.5 2430.51 2110.5C2413.31 2110.5 2400.11 2106.5 2390.91 2098.5C2381.91 2090.3 2375.71 2079 2372.31 2064.6L2397.21 2056.2C2398.21 2062.8 2399.81 2068.2 2402.01 2072.4C2404.41 2076.6 2407.21 2079.9 2410.41 2082.3C2413.61 2084.7 2417.11 2086.4 2420.91 2087.4C2424.71 2088.2 2428.61 2088.6 2432.61 2088.6C2439.41 2088.6 2445.41 2087 2450.61 2083.8C2455.81 2080.4 2458.41 2075.2 2458.41 2068.2C2458.41 2063 2456.41 2058.7 2452.41 2055.3C2448.41 2051.9 2443.41 2048.7 2437.41 2045.7C2431.41 2042.7 2424.91 2039.7 2417.91 2036.7C2411.11 2033.5 2404.71 2029.7 2398.71 2025.3C2392.71 2020.9 2387.71 2015.6 2383.71 2009.4C2379.71 2003 2377.71 1995.1 2377.71 1985.7C2377.71 1981.1 2378.61 1976.3 2380.41 1971.3C2382.21 1966.1 2385.21 1961.4 2389.41 1957.2C2393.81 1953 2399.51 1949.5 2406.51 1946.7C2413.71 1943.9 2422.51 1942.5 2432.91 1942.5C2446.71 1942.5 2458.11 1945.6 2467.11 1951.8C2476.31 1957.8 2482.91 1968 2486.91 1982.4L2462.01 1990.8C2459.81 1982.6 2456.21 1976.2 2451.21 1971.6C2446.21 1966.8 2439.91 1964.4 2432.31 1964.4ZM2705.57 1994.4L2677.07 2106H2637.77L2595.77 1947H2624.87L2659.07 2080.2L2692.67 1947H2718.77L2752.07 2080.2L2786.57 1947H2812.67L2770.67 2106H2734.37L2705.57 1994.4ZM2885.11 2106H2856.31V1947H2885.11V2106ZM2852.41 1896.9C2852.41 1890.5 2854.11 1885.8 2857.51 1882.8C2861.11 1879.6 2865.51 1878 2870.71 1878C2876.11 1878 2880.51 1879.6 2883.91 1882.8C2887.51 1885.8 2889.31 1890.5 2889.31 1896.9C2889.31 1903.3 2887.51 1908.1 2883.91 1911.3C2880.51 1914.3 2876.11 1915.8 2870.71 1915.8C2865.51 1915.8 2861.11 1914.3 2857.51 1911.3C2854.11 1908.1 2852.41 1903.3 2852.41 1896.9ZM2931.58 1947H2954.38V1914L2977.18 1908H2983.18V1947H3025.18V1968H2983.18V2071.8C2983.18 2081.4 2987.88 2086.2 2997.28 2086.2C3003.48 2086.2 3011.18 2083.4 3020.38 2077.8L3028.18 2095.8C3022.18 2100.4 3015.38 2104 3007.78 2106.6C3000.38 2109.2 2993.38 2110.5 2986.78 2110.5C2976.18 2110.5 2968.08 2107 2962.48 2100C2957.08 2092.8 2954.38 2082.4 2954.38 2068.8V1968H2931.58V1947ZM3091.62 1968.6C3097.62 1960.4 3104.82 1954 3113.22 1949.4C3121.62 1944.8 3130.62 1942.5 3140.22 1942.5C3149.62 1942.5 3157.62 1943.6 3164.22 1945.8C3170.82 1948 3176.12 1951.5 3180.12 1956.3C3184.32 1960.9 3187.32 1967 3189.12 1974.6C3191.12 1982.2 3192.12 1991.4 3192.12 2002.2V2106H3163.32V1999.2C3163.32 1977 3153.42 1965.9 3133.62 1965.9C3117.02 1965.9 3103.52 1972.9 3093.12 1986.9V2106H3064.32V1881H3091.62V1968.6ZM3240.18 2026.5C3240.18 2012.7 3241.98 2000.6 3245.58 1990.2C3249.38 1979.6 3254.48 1970.8 3260.88 1963.8C3267.28 1956.6 3274.88 1951.3 3283.68 1947.9C3292.68 1944.3 3302.28 1942.5 3312.48 1942.5C3322.68 1942.5 3332.18 1944.3 3340.98 1947.9C3349.98 1951.3 3357.68 1956.6 3364.08 1963.8C3370.68 1970.8 3375.78 1979.6 3379.38 1990.2C3383.18 2000.6 3385.08 2012.7 3385.08 2026.5C3385.08 2040.3 3383.18 2052.5 3379.38 2063.1C3375.78 2073.5 3370.68 2082.3 3364.08 2089.5C3357.68 2096.5 3349.98 2101.8 3340.98 2105.4C3332.18 2108.8 3322.68 2110.5 3312.48 2110.5C3302.28 2110.5 3292.68 2108.8 3283.68 2105.4C3274.88 2101.8 3267.28 2096.5 3260.88 2089.5C3254.48 2082.3 3249.38 2073.5 3245.58 2063.1C3241.98 2052.5 3240.18 2040.3 3240.18 2026.5ZM3270.18 2026.5C3270.18 2047.1 3274.08 2062.4 3281.88 2072.4C3289.88 2082.2 3300.08 2087.1 3312.48 2087.1C3325.08 2087.1 3335.28 2082.2 3343.08 2072.4C3351.08 2062.4 3355.08 2047.1 3355.08 2026.5C3355.08 2005.9 3351.08 1990.7 3343.08 1980.9C3335.28 1970.9 3325.08 1965.9 3312.48 1965.9C3300.08 1965.9 3289.88 1970.9 3281.88 1980.9C3274.08 1990.7 3270.18 2005.9 3270.18 2026.5ZM3559.4 2080.5C3559.4 2083.7 3560.1 2085.9 3561.5 2087.1C3563.1 2088.1 3565 2088.6 3567.2 2088.6C3568.8 2088.6 3570.5 2088.4 3572.3 2088C3574.1 2087.4 3575.8 2086.7 3577.4 2085.9L3582.2 2104.5C3579 2106.1 3575.5 2107.5 3571.7 2108.7C3567.9 2109.9 3563.7 2110.5 3559.1 2110.5C3552.1 2110.5 3546.2 2108.9 3541.4 2105.7C3536.6 2102.5 3533.6 2096.5 3532.4 2087.7C3526.2 2093.7 3518.6 2099 3509.6 2103.6C3500.8 2108.2 3490.4 2110.5 3478.4 2110.5C3462.6 2110.5 3451.1 2105.8 3443.9 2096.4C3436.7 2086.8 3433.1 2072.9 3433.1 2054.7V1947H3461.9V2055C3461.9 2065.8 3463.8 2073.9 3467.6 2079.3C3471.4 2084.5 3477.8 2087.1 3486.8 2087.1C3495.6 2087.1 3503.6 2085.5 3510.8 2082.3C3518 2079.1 3524.6 2074.8 3530.6 2069.4V1947H3559.4V2080.5ZM3607.75 1947H3630.55V1914L3653.35 1908H3659.35V1947H3701.35V1968H3659.35V2071.8C3659.35 2081.4 3664.05 2086.2 3673.45 2086.2C3679.65 2086.2 3687.35 2083.4 3696.55 2077.8L3704.35 2095.8C3698.35 2100.4 3691.55 2104 3683.95 2106.6C3676.55 2109.2 3669.55 2110.5 3662.95 2110.5C3652.35 2110.5 3644.25 2107 3638.65 2100C3633.25 2092.8 3630.55 2082.4 3630.55 2068.8V1968H3607.75V1947ZM3886.75 2087.1C3896.95 2087.1 3905.75 2085.2 3913.15 2081.4C3920.75 2077.4 3926.85 2073.2 3931.45 2068.8L3944.35 2084.4C3938.15 2091.4 3930.05 2097.5 3920.05 2102.7C3910.05 2107.9 3898.65 2110.5 3885.85 2110.5C3875.25 2110.5 3865.45 2108.8 3856.45 2105.4C3847.45 2101.8 3839.65 2096.5 3833.05 2089.5C3826.65 2082.3 3821.55 2073.5 3817.75 2063.1C3814.15 2052.5 3812.35 2040.3 3812.35 2026.5C3812.35 2012.7 3814.15 2000.6 3817.75 1990.2C3821.35 1979.6 3826.35 1970.8 3832.75 1963.8C3839.15 1956.6 3846.65 1951.3 3855.25 1947.9C3864.05 1944.3 3873.55 1942.5 3883.75 1942.5C3893.15 1942.5 3901.75 1944 3909.55 1947C3917.55 1949.8 3924.35 1954.2 3929.95 1960.2C3935.55 1966.2 3939.85 1973.7 3942.85 1982.7C3946.05 1991.5 3947.65 2001.9 3947.65 2013.9V2034.9H3842.65C3843.85 2052.7 3848.45 2065.9 3856.45 2074.5C3864.65 2082.9 3874.75 2087.1 3886.75 2087.1ZM3884.05 1965.9C3873.25 1965.9 3864.05 1969.9 3856.45 1977.9C3849.05 1985.7 3844.55 1997.7 3842.95 2013.9H3919.15C3919.15 1998.5 3916.05 1986.7 3909.85 1978.5C3903.85 1970.1 3895.25 1965.9 3884.05 1965.9ZM3985.1 1947H4007.9V1928.7C4007.9 1909.9 4011.9 1896.5 4019.9 1888.5C4028.1 1880.5 4039.9 1876.5 4055.3 1876.5C4065.5 1876.5 4074 1878.6 4080.8 1882.8C4087.8 1887 4093.5 1895 4097.9 1906.8L4073.9 1914.9C4072.1 1910.1 4069.8 1906.4 4067 1903.8C4064.2 1901.2 4060.2 1899.9 4055 1899.9C4049 1899.9 4044.4 1902 4041.2 1906.2C4038.2 1910.2 4036.7 1916.7 4036.7 1925.7V1947H4075.7V1968H4036.7V2106H4007.9V1968H3985.1V1947ZM4099.06 1947H4121.86V1928.7C4121.86 1909.9 4125.86 1896.5 4133.86 1888.5C4142.06 1880.5 4153.86 1876.5 4169.26 1876.5C4179.46 1876.5 4187.96 1878.6 4194.76 1882.8C4201.76 1887 4207.46 1895 4211.86 1906.8L4187.86 1914.9C4186.06 1910.1 4183.76 1906.4 4180.96 1903.8C4178.16 1901.2 4174.16 1899.9 4168.96 1899.9C4162.96 1899.9 4158.36 1902 4155.16 1906.2C4152.16 1910.2 4150.66 1916.7 4150.66 1925.7V1947H4189.66V1968H4150.66V2106H4121.86V1968H4099.06V1947ZM4217.53 2026.5C4217.53 2012.7 4219.33 2000.6 4222.93 1990.2C4226.73 1979.6 4231.83 1970.8 4238.23 1963.8C4244.63 1956.6 4252.23 1951.3 4261.03 1947.9C4270.03 1944.3 4279.63 1942.5 4289.83 1942.5C4300.03 1942.5 4309.53 1944.3 4318.33 1947.9C4327.33 1951.3 4335.03 1956.6 4341.43 1963.8C4348.03 1970.8 4353.13 1979.6 4356.73 1990.2C4360.53 2000.6 4362.43 2012.7 4362.43 2026.5C4362.43 2040.3 4360.53 2052.5 4356.73 2063.1C4353.13 2073.5 4348.03 2082.3 4341.43 2089.5C4335.03 2096.5 4327.33 2101.8 4318.33 2105.4C4309.53 2108.8 4300.03 2110.5 4289.83 2110.5C4279.63 2110.5 4270.03 2108.8 4261.03 2105.4C4252.23 2101.8 4244.63 2096.5 4238.23 2089.5C4231.83 2082.3 4226.73 2073.5 4222.93 2063.1C4219.33 2052.5 4217.53 2040.3 4217.53 2026.5ZM4247.53 2026.5C4247.53 2047.1 4251.43 2062.4 4259.23 2072.4C4267.23 2082.2 4277.43 2087.1 4289.83 2087.1C4302.43 2087.1 4312.63 2082.2 4320.43 2072.4C4328.43 2062.4 4332.43 2047.1 4332.43 2026.5C4332.43 2005.9 4328.43 1990.7 4320.43 1980.9C4312.63 1970.9 4302.43 1965.9 4289.83 1965.9C4277.43 1965.9 4267.23 1970.9 4259.23 1980.9C4251.43 1990.7 4247.53 2005.9 4247.53 2026.5ZM4437.74 1947L4439.24 1966.5C4445.44 1959.5 4452.84 1953.9 4461.44 1949.7C4470.04 1945.3 4479.14 1942.9 4488.74 1942.5L4490.24 1964.1L4486.64 1967.4C4477.24 1967.6 4468.74 1969.3 4461.14 1972.5C4453.74 1975.5 4447.44 1979.7 4442.24 1985.1V2106H4413.44V1947H4437.74ZM4509.51 1947H4532.31V1914L4555.11 1908H4561.11V1947H4603.11V1968H4561.11V2071.8C4561.11 2081.4 4565.81 2086.2 4575.21 2086.2C4581.41 2086.2 4589.11 2083.4 4598.31 2077.8L4606.11 2095.8C4600.11 2100.4 4593.31 2104 4585.71 2106.6C4578.31 2109.2 4571.31 2110.5 4564.71 2110.5C4554.11 2110.5 4546.01 2107 4540.41 2100C4535.01 2092.8 4532.31 2082.4 4532.31 2068.8V1968H4509.51V1947ZM4627.25 2090.1C4627.25 2083.1 4629.05 2078 4632.65 2074.8C4636.45 2071.4 4641.25 2069.7 4647.05 2069.7C4652.85 2069.7 4657.65 2071.4 4661.45 2074.8C4665.25 2078 4667.15 2083.1 4667.15 2090.1C4667.15 2097.1 4665.25 2102.3 4661.45 2105.7C4657.65 2108.9 4652.85 2110.5 4647.05 2110.5C4641.25 2110.5 4636.45 2108.9 4632.65 2105.7C4629.05 2102.3 4627.25 2097.1 4627.25 2090.1Z" fill="white"/>
</svg>
