<svg width="5216" height="2735" viewBox="0 0 5216 2735" fill="none" xmlns="http://www.w3.org/2000/svg">
<rect width="5216" height="2735" fill="#0B132B"/>
<path d="M1491 755C1491 721.863 1517.86 695 1551 695H2012C2045.14 695 2072 721.863 2072 755V1281C2072 1330.71 2031.71 1371 1982 1371H1581C1531.29 1371 1491 1330.71 1491 1281V755Z" fill="#2EC4B6"/>
<path d="M1585 839C1585 819.67 1600.67 804 1620 804H1942C1961.33 804 1977 819.67 1977 839V864C1977 883.33 1961.33 899 1942 899H1620C1600.67 899 1585 883.33 1585 864V839Z" fill="white"/>
<path d="M1585 997C1585 977.67 1600.67 962 1620 962H1857C1876.33 962 1892 977.67 1892 997V1022C1892 1041.33 1876.33 1057 1857 1057H1620C1600.67 1057 1585 1041.33 1585 1022V997Z" fill="white"/>
<path d="M1585 1155C1585 1135.67 1600.67 1120 1620 1120H1645C1664.33 1120 1680 1135.67 1680 1155V1227C1680 1246.33 1664.33 1262 1645 1262H1620C1600.67 1262 1585 1246.33 1585 1227V1155Z" fill="white"/>
<path d="M2330.95 1393.35C2280.52 1393.35 2240.57 1384.28 2211.1 1366.15C2181.63 1348.02 2160.38 1322.23 2147.35 1288.8C2134.88 1254.8 2128.65 1214.28 2128.65 1167.25V910.55C2128.65 863.517 2134.88 823.283 2147.35 789.85C2160.38 756.417 2181.63 730.917 2211.1 713.35C2240.57 695.783 2280.52 687 2330.95 687C2381.95 687 2422.18 696.067 2451.65 714.2C2481.68 731.767 2502.93 757.267 2515.4 790.7C2528.43 823.567 2534.95 863.517 2534.95 910.55V1167.25C2534.95 1214.28 2528.43 1254.8 2515.4 1288.8C2502.93 1322.23 2481.68 1348.02 2451.65 1366.15C2422.18 1384.28 2381.95 1393.35 2330.95 1393.35ZM2330.95 1292.2C2349.08 1292.2 2362.4 1288.23 2370.9 1280.3C2379.4 1271.8 2385.07 1260.75 2387.9 1247.15C2390.73 1232.98 2392.15 1217.97 2392.15 1202.1V876.55C2392.15 860.683 2390.73 845.95 2387.9 832.35C2385.07 818.75 2379.4 807.983 2370.9 800.05C2362.4 791.55 2349.08 787.3 2330.95 787.3C2313.95 787.3 2301.2 791.55 2292.7 800.05C2284.2 807.983 2278.53 818.75 2275.7 832.35C2272.87 845.95 2271.45 860.683 2271.45 876.55V1202.1C2271.45 1217.97 2272.58 1232.98 2274.85 1247.15C2277.68 1260.75 2283.35 1271.8 2291.85 1280.3C2300.35 1288.23 2313.38 1292.2 2330.95 1292.2ZM2628.6 1384V695.5H2807.1C2853.56 695.5 2893.23 700.883 2926.1 711.65C2959.53 721.85 2985.03 740.267 3002.6 766.9C3020.73 793.533 3029.8 830.367 3029.8 877.4C3029.8 905.733 3027.25 930.95 3022.15 953.05C3017.61 974.583 3009.11 993.567 2996.65 1010C2984.75 1025.87 2967.75 1038.62 2945.65 1048.25L3040.85 1384H2897.2L2818.15 1072.05H2768.85V1384H2628.6ZM2768.85 988.75H2809.65C2832.31 988.75 2850.16 985.067 2863.2 977.7C2876.23 970.333 2885.3 959.283 2890.4 944.55C2896.06 929.25 2898.9 910.55 2898.9 888.45C2898.9 856.717 2892.95 832.633 2881.05 816.2C2869.71 799.2 2848.18 790.7 2816.45 790.7H2768.85V988.75ZM3121.6 1384L3133.5 695.5H3282.25L3367.25 1129.85L3458.2 695.5H3601.85L3613.75 1384H3511.75L3500.7 917.35L3413.15 1384H3325.6L3233.8 913.95L3224.45 1384H3121.6Z" fill="#2EC4B6"/>
<path d="M1061.7 1919V1942.4H1006.5V2129H977.7V1942.4H922.5V1919H1061.7ZM1120.39 1991.6C1126.39 1983.4 1133.59 1977 1141.99 1972.4C1150.39 1967.8 1159.39 1965.5 1168.99 1965.5C1178.39 1965.5 1186.39 1966.6 1192.99 1968.8C1199.59 1971 1204.89 1974.5 1208.89 1979.3C1213.09 1983.9 1216.09 1990 1217.89 1997.6C1219.89 2005.2 1220.89 2014.4 1220.89 2025.2V2129H1192.09V2022.2C1192.09 2000 1182.19 1988.9 1162.39 1988.9C1145.79 1988.9 1132.29 1995.9 1121.89 2009.9V2129H1093.09V1904H1120.39V1991.6ZM1343.35 2110.1C1353.55 2110.1 1362.35 2108.2 1369.75 2104.4C1377.35 2100.4 1383.45 2096.2 1388.05 2091.8L1400.95 2107.4C1394.75 2114.4 1386.65 2120.5 1376.65 2125.7C1366.65 2130.9 1355.25 2133.5 1342.45 2133.5C1331.85 2133.5 1322.05 2131.8 1313.05 2128.4C1304.05 2124.8 1296.25 2119.5 1289.65 2112.5C1283.25 2105.3 1278.15 2096.5 1274.35 2086.1C1270.75 2075.5 1268.95 2063.3 1268.95 2049.5C1268.95 2035.7 1270.75 2023.6 1274.35 2013.2C1277.95 2002.6 1282.95 1993.8 1289.35 1986.8C1295.75 1979.6 1303.25 1974.3 1311.85 1970.9C1320.65 1967.3 1330.15 1965.5 1340.35 1965.5C1349.75 1965.5 1358.35 1967 1366.15 1970C1374.15 1972.8 1380.95 1977.2 1386.55 1983.2C1392.15 1989.2 1396.45 1996.7 1399.45 2005.7C1402.65 2014.5 1404.25 2024.9 1404.25 2036.9V2057.9H1299.25C1300.45 2075.7 1305.05 2088.9 1313.05 2097.5C1321.25 2105.9 1331.35 2110.1 1343.35 2110.1ZM1340.65 1988.9C1329.85 1988.9 1320.65 1992.9 1313.05 2000.9C1305.65 2008.7 1301.15 2020.7 1299.55 2036.9H1375.75C1375.75 2021.5 1372.65 2009.7 1366.45 2001.5C1360.45 1993.1 1351.85 1988.9 1340.65 1988.9ZM1615.56 2056.4C1613.16 2051.2 1610.46 2047.7 1607.46 2045.9C1604.46 2044.1 1600.96 2043.2 1596.96 2043.2H1596.66H1564.86V2129H1536.06V1919H1596.66C1608.66 1919 1619.16 1920.7 1628.16 1924.1C1637.16 1927.3 1644.56 1931.8 1650.36 1937.6C1656.36 1943.2 1660.86 1949.8 1663.86 1957.4C1666.86 1965 1668.36 1973.2 1668.36 1982C1668.36 1995 1665.26 2006.3 1659.06 2015.9C1653.06 2025.5 1643.96 2032.7 1631.76 2037.5C1634.56 2039.5 1636.76 2041.8 1638.36 2044.4C1640.16 2046.8 1641.66 2049.2 1642.86 2051.6L1680.36 2129H1648.86L1615.56 2056.4ZM1564.86 1942.4V2019.8H1596.66C1605.26 2019.8 1612.36 2018.7 1617.96 2016.5C1623.56 2014.1 1627.96 2011.1 1631.16 2007.5C1634.56 2003.9 1636.96 1999.8 1638.36 1995.2C1639.76 1990.6 1640.46 1985.9 1640.46 1981.1C1640.46 1976.5 1639.76 1971.9 1638.36 1967.3C1636.96 1962.7 1634.56 1958.6 1631.16 1955C1627.96 1951.2 1623.56 1948.2 1617.96 1946C1612.36 1943.6 1605.26 1942.4 1596.66 1942.4H1564.86ZM1784.86 2110.1C1795.06 2110.1 1803.86 2108.2 1811.26 2104.4C1818.86 2100.4 1824.96 2096.2 1829.56 2091.8L1842.46 2107.4C1836.26 2114.4 1828.16 2120.5 1818.16 2125.7C1808.16 2130.9 1796.76 2133.5 1783.96 2133.5C1773.36 2133.5 1763.56 2131.8 1754.56 2128.4C1745.56 2124.8 1737.76 2119.5 1731.16 2112.5C1724.76 2105.3 1719.66 2096.5 1715.86 2086.1C1712.26 2075.5 1710.46 2063.3 1710.46 2049.5C1710.46 2035.7 1712.26 2023.6 1715.86 2013.2C1719.46 2002.6 1724.46 1993.8 1730.86 1986.8C1737.26 1979.6 1744.76 1974.3 1753.36 1970.9C1762.16 1967.3 1771.66 1965.5 1781.86 1965.5C1791.26 1965.5 1799.86 1967 1807.66 1970C1815.66 1972.8 1822.46 1977.2 1828.06 1983.2C1833.66 1989.2 1837.96 1996.7 1840.96 2005.7C1844.16 2014.5 1845.76 2024.9 1845.76 2036.9V2057.9H1740.76C1741.96 2075.7 1746.56 2088.9 1754.56 2097.5C1762.76 2105.9 1772.86 2110.1 1784.86 2110.1ZM1782.16 1988.9C1771.36 1988.9 1762.16 1992.9 1754.56 2000.9C1747.16 2008.7 1742.66 2020.7 1741.06 2036.9H1817.26C1817.26 2021.5 1814.16 2009.7 1807.96 2001.5C1801.96 1993.1 1793.36 1988.9 1782.16 1988.9ZM1947.1 1988.9C1930.3 1988.9 1919.4 1997.2 1914.4 2013.8L1889.5 2005.4C1897.5 1978.8 1916.7 1965.5 1947.1 1965.5C1968.1 1965.5 1983.2 1970.8 1992.4 1981.4C2001.8 1991.8 2006.5 2008.9 2006.5 2032.7V2103.5C2006.5 2106.7 2007.2 2108.9 2008.6 2110.1C2010.2 2111.1 2012.1 2111.6 2014.3 2111.6C2015.9 2111.6 2017.6 2111.4 2019.4 2111C2021.2 2110.4 2022.9 2109.7 2024.5 2108.9L2029.3 2127.5C2026.1 2129.1 2022.6 2130.5 2018.8 2131.7C2015 2132.9 2010.8 2133.5 2006.2 2133.5C1999 2133.5 1992.9 2131.8 1987.9 2128.4C1983.1 2124.8 1980.2 2118 1979.2 2108C1976.2 2111.2 1972.8 2114.4 1969 2117.6C1965.2 2120.6 1961 2123.3 1956.4 2125.7C1952 2128.1 1947.2 2130 1942 2131.4C1937 2132.8 1931.7 2133.5 1926.1 2133.5C1920.1 2133.5 1914.4 2132.3 1909 2129.9C1903.8 2127.7 1899.3 2124.6 1895.5 2120.6C1891.7 2116.6 1888.7 2111.9 1886.5 2106.5C1884.3 2100.9 1883.2 2094.9 1883.2 2088.5C1883.2 2072.1 1888.7 2059.3 1899.7 2050.1C1910.9 2040.9 1926.3 2036.3 1945.9 2036.3C1951.3 2036.3 1956.7 2036.7 1962.1 2037.5C1967.5 2038.3 1972.7 2039.5 1977.7 2041.1V2022.2C1977.7 2011.8 1975 2003.7 1969.6 1997.9C1964.2 1991.9 1956.7 1988.9 1947.1 1988.9ZM1934.8 2110.1C1942.4 2110.1 1949.8 2108.3 1957 2104.7C1964.4 2100.9 1971.3 2095.8 1977.7 2089.4V2060.3C1973.5 2058.9 1969 2057.8 1964.2 2057C1959.4 2056.2 1954.7 2055.8 1950.1 2055.8C1945.1 2055.8 1940.3 2056.3 1935.7 2057.3C1931.1 2058.3 1927 2060 1923.4 2062.4C1920 2064.8 1917.2 2068 1915 2072C1913 2075.8 1912 2080.5 1912 2086.1C1912 2092.7 1914.1 2098.4 1918.3 2103.2C1922.5 2107.8 1928 2110.1 1934.8 2110.1ZM2161.12 2013.8C2156.52 1997.2 2146.32 1988.9 2130.52 1988.9C2118.12 1988.9 2107.92 1993.9 2099.92 2003.9C2091.92 2013.7 2087.92 2028.9 2087.92 2049.5C2087.92 2070.1 2092.02 2085.4 2100.22 2095.4C2108.42 2105.2 2118.82 2110.1 2131.42 2110.1C2140.42 2110.1 2148.52 2108.2 2155.72 2104.4C2162.92 2100.4 2168.82 2096.2 2173.42 2091.8L2186.32 2107.4C2180.12 2114.4 2172.12 2120.5 2162.32 2125.7C2152.52 2130.9 2141.82 2133.5 2130.22 2133.5C2119.62 2133.5 2109.92 2131.8 2101.12 2128.4C2092.32 2124.8 2084.72 2119.5 2078.32 2112.5C2071.92 2105.3 2066.92 2096.5 2063.32 2086.1C2059.72 2075.5 2057.92 2063.3 2057.92 2049.5C2057.92 2035.7 2059.72 2023.6 2063.32 2013.2C2067.12 2002.6 2072.22 1993.8 2078.62 1986.8C2085.02 1979.6 2092.62 1974.3 2101.42 1970.9C2110.22 1967.3 2119.72 1965.5 2129.92 1965.5C2143.52 1965.5 2155.12 1968.6 2164.72 1974.8C2174.52 1980.8 2181.62 1991 2186.02 2005.4L2161.12 2013.8ZM2211.91 1970H2234.71V1937L2257.51 1931H2263.51V1970H2305.51V1991H2263.51V2094.8C2263.51 2104.4 2268.21 2109.2 2277.61 2109.2C2283.81 2109.2 2291.51 2106.4 2300.71 2100.8L2308.51 2118.8C2302.51 2123.4 2295.71 2127 2288.11 2129.6C2280.71 2132.2 2273.71 2133.5 2267.11 2133.5C2256.51 2133.5 2248.41 2130 2242.81 2123C2237.41 2115.8 2234.71 2105.4 2234.71 2091.8V1991H2211.91V1970ZM2413.65 2069.3C2413.65 2081.1 2412.55 2091.1 2410.35 2099.3C2408.35 2107.3 2405.15 2113.9 2400.75 2119.1C2396.35 2124.1 2390.85 2127.7 2384.25 2129.9C2377.85 2132.3 2370.25 2133.5 2361.45 2133.5C2349.65 2133.5 2339.45 2130.5 2330.85 2124.5C2322.45 2118.3 2316.05 2108 2311.65 2093.6L2336.55 2085.2C2340.15 2101.8 2348.45 2110.1 2361.45 2110.1C2368.45 2110.1 2374.05 2107.8 2378.25 2103.2C2382.65 2098.6 2384.85 2090.8 2384.85 2079.8V1919H2413.65V2069.3ZM2567.49 2080.1C2567.49 2072.1 2564.89 2065.5 2559.69 2060.3C2554.49 2055.1 2547.99 2050.5 2540.19 2046.5C2532.59 2042.5 2524.19 2038.6 2514.99 2034.8C2505.99 2031 2497.59 2026.4 2489.79 2021C2482.19 2015.6 2475.79 2009 2470.59 2001.2C2465.39 1993.2 2462.79 1983.1 2462.79 1970.9C2462.79 1964.9 2463.89 1958.6 2466.09 1952C2468.49 1945.4 2472.29 1939.3 2477.49 1933.7C2482.69 1928.1 2489.49 1923.5 2497.89 1919.9C2506.49 1916.3 2517.09 1914.5 2529.69 1914.5C2546.29 1914.5 2560.09 1918.1 2571.09 1925.3C2582.29 1932.3 2590.29 1943.9 2595.09 1960.1L2568.99 1969.4C2565.59 1959.6 2560.29 1951.9 2553.09 1946.3C2545.89 1940.7 2536.79 1937.9 2525.79 1937.9C2515.59 1937.9 2507.29 1940.6 2500.89 1946C2494.69 1951.4 2491.59 1958.9 2491.59 1968.5C2491.59 1976.7 2494.19 1983.5 2499.39 1988.9C2504.59 1994.1 2510.99 1998.8 2518.59 2003C2526.39 2007 2534.79 2010.9 2543.79 2014.7C2552.99 2018.5 2561.39 2023 2568.99 2028.2C2576.79 2033.2 2583.29 2039.4 2588.49 2046.8C2593.69 2054 2596.29 2063.2 2596.29 2074.4C2596.29 2080.6 2595.09 2087.2 2592.69 2094.2C2590.29 2101 2586.39 2107.4 2580.99 2113.4C2575.59 2119.2 2568.39 2124 2559.39 2127.8C2550.59 2131.6 2539.59 2133.5 2526.39 2133.5C2508.59 2133.5 2493.69 2129.2 2481.69 2120.6C2469.89 2111.8 2461.49 2097.5 2456.49 2077.7L2482.29 2068.4C2489.29 2096.2 2504.89 2110.1 2529.09 2110.1C2540.29 2110.1 2549.49 2107.3 2556.69 2101.7C2563.89 2095.9 2567.49 2088.7 2567.49 2080.1ZM2709.38 1970H2732.18V1951.7C2732.18 1932.9 2736.18 1919.5 2744.18 1911.5C2752.38 1903.5 2764.18 1899.5 2779.58 1899.5C2789.78 1899.5 2798.28 1901.6 2805.08 1905.8C2812.08 1910 2817.78 1918 2822.18 1929.8L2798.18 1937.9C2796.38 1933.1 2794.08 1929.4 2791.28 1926.8C2788.48 1924.2 2784.48 1922.9 2779.28 1922.9C2773.28 1922.9 2768.68 1925 2765.48 1929.2C2762.48 1933.2 2760.98 1939.7 2760.98 1948.7V1970H2799.98V1991H2760.98V2129H2732.18V1991H2709.38V1970ZM2827.84 2049.5C2827.84 2035.7 2829.64 2023.6 2833.24 2013.2C2837.04 2002.6 2842.14 1993.8 2848.54 1986.8C2854.94 1979.6 2862.54 1974.3 2871.34 1970.9C2880.34 1967.3 2889.94 1965.5 2900.14 1965.5C2910.34 1965.5 2919.84 1967.3 2928.64 1970.9C2937.64 1974.3 2945.34 1979.6 2951.74 1986.8C2958.34 1993.8 2963.44 2002.6 2967.04 2013.2C2970.84 2023.6 2972.74 2035.7 2972.74 2049.5C2972.74 2063.3 2970.84 2075.5 2967.04 2086.1C2963.44 2096.5 2958.34 2105.3 2951.74 2112.5C2945.34 2119.5 2937.64 2124.8 2928.64 2128.4C2919.84 2131.8 2910.34 2133.5 2900.14 2133.5C2889.94 2133.5 2880.34 2131.8 2871.34 2128.4C2862.54 2124.8 2854.94 2119.5 2848.54 2112.5C2842.14 2105.3 2837.04 2096.5 2833.24 2086.1C2829.64 2075.5 2827.84 2063.3 2827.84 2049.5ZM2857.84 2049.5C2857.84 2070.1 2861.74 2085.4 2869.54 2095.4C2877.54 2105.2 2887.74 2110.1 2900.14 2110.1C2912.74 2110.1 2922.94 2105.2 2930.74 2095.4C2938.74 2085.4 2942.74 2070.1 2942.74 2049.5C2942.74 2028.9 2938.74 2013.7 2930.74 2003.9C2922.94 1993.9 2912.74 1988.9 2900.14 1988.9C2887.74 1988.9 2877.54 1993.9 2869.54 2003.9C2861.74 2013.7 2857.84 2028.9 2857.84 2049.5ZM3048.05 1970L3049.55 1989.5C3055.75 1982.5 3063.15 1976.9 3071.75 1972.7C3080.35 1968.3 3089.45 1965.9 3099.05 1965.5L3100.55 1987.1L3096.95 1990.4C3087.55 1990.6 3079.05 1992.3 3071.45 1995.5C3064.05 1998.5 3057.75 2002.7 3052.55 2008.1V2129H3023.75V1970H3048.05ZM3157.62 1970L3159.12 1988.6C3164.92 1982.6 3171.72 1977.3 3179.52 1972.7C3187.52 1967.9 3196.32 1965.5 3205.92 1965.5C3218.12 1965.5 3227.92 1967.5 3235.32 1971.5C3242.72 1975.5 3248.12 1982 3251.52 1991C3257.32 1984.4 3264.32 1978.5 3272.52 1973.3C3280.92 1968.1 3290.22 1965.5 3300.42 1965.5C3309.42 1965.5 3317.12 1966.6 3323.52 1968.8C3330.12 1971 3335.42 1974.5 3339.42 1979.3C3343.42 1983.9 3346.32 1990 3348.12 1997.6C3350.12 2005.2 3351.12 2014.4 3351.12 2025.2V2129H3322.32V2022.2C3322.32 2000 3312.82 1988.9 3293.82 1988.9C3286.82 1988.9 3280.12 1990.6 3273.72 1994C3267.32 1997.2 3261.22 2001.7 3255.42 2007.5C3255.82 2010.3 3256.12 2013.1 3256.32 2015.9C3256.52 2018.7 3256.62 2021.8 3256.62 2025.2V2129H3227.82V2022.2C3227.82 2000 3218.32 1988.9 3199.32 1988.9C3192.72 1988.9 3186.22 1990.5 3179.82 1993.7C3173.62 1996.9 3167.72 2001.2 3162.12 2006.6V2129H3133.32V1970H3157.62ZM3517.79 2103.5C3517.79 2106.7 3518.39 2108.9 3519.59 2110.1C3520.99 2111.1 3522.79 2111.6 3524.99 2111.6C3526.59 2111.6 3528.39 2111.4 3530.39 2111C3532.39 2110.4 3534.19 2109.7 3535.79 2108.9L3540.59 2127.5C3537.39 2129.1 3533.89 2130.5 3530.09 2131.7C3526.29 2132.9 3522.09 2133.5 3517.49 2133.5C3513.49 2133.5 3509.79 2133 3506.39 2132C3502.99 2131.2 3499.99 2129.6 3497.39 2127.2C3494.79 2124.8 3492.69 2121.6 3491.09 2117.6C3489.69 2113.6 3488.99 2108.6 3488.99 2102.6V1904H3517.79V2103.5ZM3606.56 2129H3577.76V1970H3606.56V2129ZM3573.86 1919.9C3573.86 1913.5 3575.56 1908.8 3578.96 1905.8C3582.56 1902.6 3586.96 1901 3592.16 1901C3597.56 1901 3601.96 1902.6 3605.36 1905.8C3608.96 1908.8 3610.76 1913.5 3610.76 1919.9C3610.76 1926.3 3608.96 1931.1 3605.36 1934.3C3601.96 1937.3 3597.56 1938.8 3592.16 1938.8C3586.96 1938.8 3582.56 1937.3 3578.96 1934.3C3575.56 1931.1 3573.86 1926.3 3573.86 1919.9ZM3742.13 1965.5C3751.33 1965.5 3759.63 1967.3 3767.03 1970.9C3774.63 1974.3 3781.03 1979.6 3786.23 1986.8C3791.63 1993.8 3795.73 2002.6 3798.53 2013.2C3801.53 2023.6 3803.03 2035.7 3803.03 2049.5C3803.03 2063.3 3801.23 2075.5 3797.63 2086.1C3794.03 2096.5 3789.13 2105.3 3782.93 2112.5C3776.73 2119.5 3769.43 2124.8 3761.03 2128.4C3752.63 2131.8 3743.63 2133.5 3734.03 2133.5C3724.83 2133.5 3716.33 2131.8 3708.53 2128.4C3700.73 2125 3693.83 2120.7 3687.83 2115.5L3680.33 2129H3666.53V1904H3695.33V1985.6C3700.93 1980.2 3707.53 1975.5 3715.13 1971.5C3722.93 1967.5 3731.93 1965.5 3742.13 1965.5ZM3735.83 1988.9C3727.83 1988.9 3720.43 1990.5 3713.63 1993.7C3707.03 1996.9 3700.93 2001.2 3695.33 2006.6V2097.5C3699.93 2101.1 3705.43 2104.1 3711.83 2106.5C3718.23 2108.9 3725.23 2110.1 3732.83 2110.1C3744.63 2110.1 3754.23 2105.2 3761.63 2095.4C3769.23 2085.4 3773.03 2070.1 3773.03 2049.5C3773.03 2028.9 3769.53 2013.7 3762.53 2003.9C3755.73 1993.9 3746.83 1988.9 3735.83 1988.9ZM3878.33 1970L3879.83 1989.5C3886.03 1982.5 3893.43 1976.9 3902.03 1972.7C3910.63 1968.3 3919.73 1965.9 3929.33 1965.5L3930.83 1987.1L3927.23 1990.4C3917.83 1990.6 3909.33 1992.3 3901.73 1995.5C3894.33 1998.5 3888.03 2002.7 3882.83 2008.1V2129H3854.03V1970H3878.33ZM4014 1988.9C3997.2 1988.9 3986.3 1997.2 3981.3 2013.8L3956.4 2005.4C3964.4 1978.8 3983.6 1965.5 4014 1965.5C4035 1965.5 4050.1 1970.8 4059.3 1981.4C4068.7 1991.8 4073.4 2008.9 4073.4 2032.7V2103.5C4073.4 2106.7 4074.1 2108.9 4075.5 2110.1C4077.1 2111.1 4079 2111.6 4081.2 2111.6C4082.8 2111.6 4084.5 2111.4 4086.3 2111C4088.1 2110.4 4089.8 2109.7 4091.4 2108.9L4096.2 2127.5C4093 2129.1 4089.5 2130.5 4085.7 2131.7C4081.9 2132.9 4077.7 2133.5 4073.1 2133.5C4065.9 2133.5 4059.8 2131.8 4054.8 2128.4C4050 2124.8 4047.1 2118 4046.1 2108C4043.1 2111.2 4039.7 2114.4 4035.9 2117.6C4032.1 2120.6 4027.9 2123.3 4023.3 2125.7C4018.9 2128.1 4014.1 2130 4008.9 2131.4C4003.9 2132.8 3998.6 2133.5 3993 2133.5C3987 2133.5 3981.3 2132.3 3975.9 2129.9C3970.7 2127.7 3966.2 2124.6 3962.4 2120.6C3958.6 2116.6 3955.6 2111.9 3953.4 2106.5C3951.2 2100.9 3950.1 2094.9 3950.1 2088.5C3950.1 2072.1 3955.6 2059.3 3966.6 2050.1C3977.8 2040.9 3993.2 2036.3 4012.8 2036.3C4018.2 2036.3 4023.6 2036.7 4029 2037.5C4034.4 2038.3 4039.6 2039.5 4044.6 2041.1V2022.2C4044.6 2011.8 4041.9 2003.7 4036.5 1997.9C4031.1 1991.9 4023.6 1988.9 4014 1988.9ZM4001.7 2110.1C4009.3 2110.1 4016.7 2108.3 4023.9 2104.7C4031.3 2100.9 4038.2 2095.8 4044.6 2089.4V2060.3C4040.4 2058.9 4035.9 2057.8 4031.1 2057C4026.3 2056.2 4021.6 2055.8 4017 2055.8C4012 2055.8 4007.2 2056.3 4002.6 2057.3C3998 2058.3 3993.9 2060 3990.3 2062.4C3986.9 2064.8 3984.1 2068 3981.9 2072C3979.9 2075.8 3978.9 2080.5 3978.9 2086.1C3978.9 2092.7 3981 2098.4 3985.2 2103.2C3989.4 2107.8 3994.9 2110.1 4001.7 2110.1ZM4158.11 1970L4159.61 1989.5C4165.81 1982.5 4173.21 1976.9 4181.81 1972.7C4190.41 1968.3 4199.51 1965.9 4209.11 1965.5L4210.61 1987.1L4207.01 1990.4C4197.61 1990.6 4189.11 1992.3 4181.51 1995.5C4174.11 1998.5 4167.81 2002.7 4162.61 2008.1V2129H4133.81V1970H4158.11ZM4303.38 2157.8C4298.38 2173.4 4292.18 2184.2 4284.78 2190.2C4277.58 2196.4 4268.68 2199.5 4258.08 2199.5C4249.28 2199.5 4241.18 2197.5 4233.78 2193.5C4226.38 2189.5 4220.38 2185.2 4215.78 2180.6L4229.88 2162.6C4233.08 2165.8 4236.78 2168.7 4240.98 2171.3C4245.18 2173.9 4250.18 2175.2 4255.98 2175.2C4262.18 2175.2 4267.18 2173.4 4270.98 2169.8C4274.78 2166.2 4276.68 2160.6 4276.68 2153C4276.68 2147.6 4275.98 2140.9 4274.58 2132.9C4273.18 2125.1 4271.08 2117 4268.28 2108.6L4223.88 1970H4253.58L4295.28 2108L4336.98 1970H4363.68L4303.38 2157.8Z" fill="white"/>
</svg>
